<svg width="336" height="252" viewBox="0 0 336 252" fill="none" xmlns="http://www.w3.org/2000/svg">
<g filter="url(#filter0_d_22_1561)">
<path d="M86.502 86.296C87.342 86.644 87.996 87.136 88.464 87.772C88.944 88.396 89.184 89.092 89.184 89.86C89.184 90.616 88.842 91.33 88.158 92.002C87.474 92.662 86.622 93.19 85.602 93.586C84.594 93.982 83.628 94.18 82.704 94.18C82.104 94.18 81.516 94.15 80.94 94.09C79.98 94.03 79.236 94 78.708 94H75.702V92.722L77.394 91.39V81.778L75.342 81.292L76.062 79.852H78.69C79.782 79.852 80.856 79.816 81.912 79.744C82.728 79.696 83.328 79.672 83.712 79.672C84.66 79.672 85.494 79.828 86.214 80.14C86.934 80.452 87.486 80.878 87.87 81.418C88.266 81.946 88.464 82.54 88.464 83.2C88.464 83.776 88.284 84.334 87.924 84.874C87.576 85.402 87.102 85.882 86.502 86.314V86.296ZM84.432 84.208C84.432 83.392 84.252 82.744 83.892 82.264C83.544 81.772 83.022 81.526 82.326 81.526C81.954 81.526 81.606 81.58 81.282 81.688V86.17H82.956C83.94 86.17 84.432 85.516 84.432 84.208ZM83.208 92.128C83.808 92.128 84.276 91.972 84.612 91.66C84.96 91.348 85.134 90.91 85.134 90.346C85.134 89.59 84.936 88.972 84.54 88.492C84.144 88 83.562 87.73 82.794 87.682H82.452H81.282V91.804C81.858 92.008 82.506 92.11 83.226 92.11L83.208 92.128ZM96.3989 84.046C97.7309 84.046 98.7629 84.544 99.4949 85.54C100.227 86.536 100.575 87.952 100.539 89.788H94.1849C94.3289 90.34 94.5689 90.778 94.9049 91.102C95.2409 91.414 95.6669 91.57 96.1829 91.57C97.0349 91.57 98.3069 91.258 99.9989 90.634L100.539 91.858L98.0729 93.838C97.2569 94.066 96.2789 94.18 95.1389 94.18C94.2029 94.18 93.3629 93.976 92.6189 93.568C91.8869 93.148 91.3109 92.578 90.8909 91.858C90.4829 91.126 90.2789 90.316 90.2789 89.428C90.2789 88.468 90.5969 87.574 91.2329 86.746C91.8689 85.918 92.6669 85.264 93.6269 84.784C94.5869 84.292 95.5169 84.046 96.4169 84.046H96.3989ZM95.4449 86.458C95.0009 86.458 94.6649 86.614 94.4369 86.926C94.2089 87.226 94.0829 87.694 94.0589 88.33H97.0289C96.9689 87.694 96.8129 87.226 96.5609 86.926C96.3089 86.614 95.9309 86.458 95.4269 86.458H95.4449ZM106.981 91.516C106.981 91.348 106.843 91.168 106.567 90.976C106.303 90.772 105.877 90.496 105.289 90.148C104.341 89.596 103.603 89.098 103.075 88.654C102.547 88.21 102.283 87.718 102.283 87.178C102.283 86.746 102.505 86.284 102.949 85.792C103.393 85.3 103.933 84.886 104.569 84.55C105.217 84.214 105.811 84.046 106.351 84.046C107.011 84.046 107.779 84.118 108.655 84.262C109.531 84.394 110.167 84.544 110.563 84.712V87.844H109.159C108.871 87.34 108.517 86.944 108.097 86.656C107.677 86.356 107.251 86.206 106.819 86.206C106.651 86.206 106.519 86.254 106.423 86.35C106.339 86.446 106.297 86.566 106.297 86.71C106.297 86.902 106.435 87.106 106.711 87.322C106.999 87.526 107.449 87.808 108.061 88.168C108.985 88.696 109.705 89.176 110.221 89.608C110.737 90.04 110.995 90.52 110.995 91.048C110.995 91.492 110.767 91.96 110.311 92.452C109.855 92.932 109.297 93.34 108.637 93.676C107.977 94.012 107.371 94.18 106.819 94.18C106.123 94.18 105.295 94.114 104.335 93.982C103.375 93.838 102.685 93.682 102.265 93.514V90.202H103.669C104.005 90.766 104.419 91.21 104.911 91.534C105.403 91.858 105.889 92.02 106.369 92.02C106.549 92.02 106.693 91.972 106.801 91.876C106.921 91.78 106.981 91.66 106.981 91.516ZM118.782 94.036C118.29 94.132 117.714 94.18 117.054 94.18C115.806 94.18 114.894 93.922 114.318 93.406C113.742 92.878 113.454 92.068 113.454 90.976V86.224H111.51V85.126L115.65 80.788H117.054V84.766H120.294V86.224H117.054V90.652C117.054 91.384 117.522 91.75 118.458 91.75C118.698 91.75 118.932 91.726 119.16 91.678C119.4 91.618 119.7 91.516 120.06 91.372L120.6 92.596L118.782 94.036ZM140.597 84.748L139.337 85.288L136.727 81.562H135.377V92.074L137.447 92.56L136.727 94H129.815V92.722L131.507 91.39V81.562H130.211L127.601 85.288L126.341 84.748V79.528L127.835 79.852H139.103L140.597 79.528V84.748ZM151.667 94H147.167V92.434L145.133 94.036C144.893 94.132 144.593 94.18 144.233 94.18C143.009 94.18 142.121 93.886 141.569 93.298C141.029 92.698 140.759 91.978 140.759 91.138C140.759 90.658 140.897 90.19 141.173 89.734C141.449 89.266 141.851 88.834 142.379 88.438H147.167C147.131 87.91 146.951 87.514 146.627 87.25C146.303 86.974 145.895 86.836 145.403 86.836C144.575 86.836 143.363 87.088 141.767 87.592L141.227 86.368L143.693 84.388C144.353 84.16 145.145 84.046 146.069 84.046C147.557 84.046 148.715 84.376 149.543 85.036C150.371 85.684 150.785 86.638 150.785 87.898V91.93L152.387 92.56L151.667 94ZM145.331 91.21C145.859 91.21 146.471 91.006 147.167 90.598V89.896H144.431C144.371 90.004 144.329 90.1 144.305 90.184C144.281 90.256 144.269 90.352 144.269 90.472C144.269 90.7 144.359 90.88 144.539 91.012C144.731 91.144 145.001 91.21 145.349 91.21H145.331ZM159.774 94.036C159.282 94.132 158.706 94.18 158.046 94.18C156.798 94.18 155.886 93.922 155.31 93.406C154.734 92.878 154.446 92.068 154.446 90.976V86.224H152.502V85.126L156.642 80.788H158.046V84.766H161.286V86.224H158.046V90.652C158.046 91.384 158.514 91.75 159.45 91.75C159.69 91.75 159.924 91.726 160.152 91.678C160.392 91.618 160.692 91.516 161.052 91.372L161.592 92.596L159.774 94.036ZM169.038 94.036C168.546 94.132 167.97 94.18 167.31 94.18C166.062 94.18 165.15 93.922 164.574 93.406C163.998 92.878 163.71 92.068 163.71 90.976V86.224H161.766V85.126L165.906 80.788H167.31V84.766H170.55V86.224H167.31V90.652C167.31 91.384 167.778 91.75 168.714 91.75C168.954 91.75 169.188 91.726 169.416 91.678C169.656 91.618 169.956 91.516 170.316 91.372L170.856 92.596L169.038 94.036ZM177.716 84.046C178.652 84.046 179.486 84.256 180.218 84.676C180.962 85.084 181.538 85.654 181.946 86.386C182.366 87.106 182.576 87.91 182.576 88.798C182.576 89.758 182.258 90.652 181.622 91.48C180.986 92.308 180.188 92.968 179.228 93.46C178.268 93.94 177.338 94.18 176.438 94.18C175.502 94.18 174.662 93.976 173.918 93.568C173.186 93.148 172.61 92.578 172.19 91.858C171.782 91.126 171.578 90.316 171.578 89.428C171.578 88.468 171.896 87.574 172.532 86.746C173.168 85.918 173.966 85.264 174.926 84.784C175.886 84.292 176.816 84.046 177.716 84.046ZM176.672 86.458C176.288 86.458 175.988 86.638 175.772 86.998C175.568 87.346 175.466 87.868 175.466 88.564C175.466 89.5 175.64 90.268 175.988 90.868C176.348 91.468 176.846 91.768 177.482 91.768C177.866 91.768 178.16 91.588 178.364 91.228C178.58 90.868 178.688 90.34 178.688 89.644C178.688 88.708 178.508 87.946 178.148 87.358C177.8 86.758 177.308 86.458 176.672 86.458ZM190.513 84.046C191.449 84.046 192.283 84.256 193.015 84.676C193.759 85.084 194.335 85.654 194.743 86.386C195.163 87.106 195.373 87.91 195.373 88.798C195.373 89.758 195.055 90.652 194.419 91.48C193.783 92.308 192.985 92.968 192.025 93.46C191.065 93.94 190.135 94.18 189.235 94.18C188.299 94.18 187.459 93.976 186.715 93.568C185.983 93.148 185.407 92.578 184.987 91.858C184.579 91.126 184.375 90.316 184.375 89.428C184.375 88.468 184.693 87.574 185.329 86.746C185.965 85.918 186.763 85.264 187.723 84.784C188.683 84.292 189.613 84.046 190.513 84.046ZM189.469 86.458C189.085 86.458 188.785 86.638 188.569 86.998C188.365 87.346 188.263 87.868 188.263 88.564C188.263 89.5 188.437 90.268 188.785 90.868C189.145 91.468 189.643 91.768 190.279 91.768C190.663 91.768 190.957 91.588 191.161 91.228C191.377 90.868 191.485 90.34 191.485 89.644C191.485 88.708 191.305 87.946 190.945 87.358C190.597 86.758 190.105 86.458 189.469 86.458ZM209.255 91.174C209.255 90.826 209.117 90.49 208.841 90.166C208.565 89.842 208.223 89.542 207.815 89.266C207.407 88.99 206.843 88.642 206.123 88.222C205.235 87.706 204.521 87.262 203.981 86.89C203.441 86.506 202.979 86.062 202.595 85.558C202.211 85.054 202.019 84.496 202.019 83.884C202.019 83.284 202.307 82.642 202.883 81.958C203.471 81.262 204.185 80.68 205.025 80.212C205.865 79.732 206.639 79.492 207.347 79.492C208.199 79.492 209.189 79.582 210.317 79.762C211.457 79.942 212.291 80.134 212.819 80.338V84.55H210.515C210.071 83.59 209.567 82.84 209.003 82.3C208.451 81.748 207.875 81.472 207.275 81.472C206.915 81.472 206.633 81.586 206.429 81.814C206.225 82.042 206.123 82.336 206.123 82.696C206.123 83.08 206.261 83.446 206.537 83.794C206.825 84.13 207.179 84.442 207.599 84.73C208.031 85.006 208.613 85.354 209.345 85.774C210.209 86.266 210.905 86.698 211.433 87.07C211.973 87.43 212.429 87.856 212.801 88.348C213.173 88.84 213.359 89.386 213.359 89.986C213.359 90.586 213.047 91.234 212.423 91.93C211.811 92.614 211.061 93.196 210.173 93.676C209.285 94.144 208.475 94.378 207.743 94.378C206.855 94.378 205.799 94.288 204.575 94.108C203.351 93.928 202.469 93.736 201.929 93.532V89.32H204.233C204.713 90.292 205.271 91.048 205.907 91.588C206.543 92.128 207.185 92.398 207.833 92.398C208.265 92.398 208.607 92.278 208.859 92.038C209.123 91.798 209.255 91.51 209.255 91.174ZM226.394 93.982H221.894V88.42C221.894 87.904 221.816 87.538 221.66 87.322C221.516 87.106 221.258 86.998 220.886 86.998C220.37 86.998 219.866 87.124 219.374 87.376V92.056L220.994 92.56L220.274 94H214.172V92.722L215.774 91.318V82.21L214.172 81.166V79.888L217.97 78.286H219.374V85.594L221.12 84.19C221.444 84.094 221.834 84.046 222.29 84.046C223.274 84.046 224.054 84.298 224.63 84.802C225.206 85.294 225.494 85.966 225.494 86.818V92.056L227.114 92.542L226.394 93.982ZM234.071 84.046C235.007 84.046 235.841 84.256 236.573 84.676C237.317 85.084 237.893 85.654 238.301 86.386C238.721 87.106 238.931 87.91 238.931 88.798C238.931 89.758 238.613 90.652 237.977 91.48C237.341 92.308 236.543 92.968 235.583 93.46C234.623 93.94 233.693 94.18 232.793 94.18C231.857 94.18 231.017 93.976 230.273 93.568C229.541 93.148 228.965 92.578 228.545 91.858C228.137 91.126 227.933 90.316 227.933 89.428C227.933 88.468 228.251 87.574 228.887 86.746C229.523 85.918 230.321 85.264 231.281 84.784C232.241 84.292 233.171 84.046 234.071 84.046ZM233.027 86.458C232.643 86.458 232.343 86.638 232.127 86.998C231.923 87.346 231.821 87.868 231.821 88.564C231.821 89.5 231.995 90.268 232.343 90.868C232.703 91.468 233.201 91.768 233.837 91.768C234.221 91.768 234.515 91.588 234.719 91.228C234.935 90.868 235.043 90.34 235.043 89.644C235.043 88.708 234.863 87.946 234.503 87.358C234.155 86.758 233.663 86.458 233.027 86.458ZM246.724 94.18C246.34 94.18 245.986 94.09 245.662 93.91V96.43L248.542 97.132L247.822 98.572H240.46V97.294L242.062 95.89V87.808L240.46 86.764V85.486L244.618 83.884L245.374 85.846L247.426 84.19C247.81 84.094 248.248 84.046 248.74 84.046C249.532 84.046 250.24 84.256 250.864 84.676C251.5 85.084 251.992 85.654 252.34 86.386C252.7 87.106 252.88 87.91 252.88 88.798C252.88 89.758 252.562 90.652 251.926 91.48C251.29 92.308 250.492 92.968 249.532 93.46C248.572 93.94 247.642 94.18 246.742 94.18H246.724ZM247.48 86.998C246.832 86.998 246.22 87.13 245.644 87.394V90.004C245.644 90.508 245.83 90.928 246.202 91.264C246.574 91.6 247.096 91.768 247.768 91.768C248.644 91.768 249.082 91.06 249.082 89.644C249.082 88.864 248.95 88.228 248.686 87.736C248.422 87.244 248.026 86.998 247.498 86.998H247.48Z" fill="#10B635"/>
</g>
<g filter="url(#filter1_d_22_1561)">
<path d="M128.35 152.058L124.55 151.338H104.19V148.498C107.524 145.991 110.044 144.005 111.75 142.538C113.484 141.045 114.697 139.831 115.39 138.898C116.084 137.938 116.43 137.058 116.43 136.258C116.43 135.431 116.11 134.751 115.47 134.218C114.857 133.685 114.07 133.418 113.11 133.418C111.297 133.418 108.604 134.111 105.03 135.498L103.83 132.778L109.31 128.378C110.644 127.871 112.284 127.618 114.23 127.618C116.47 127.618 118.43 127.885 120.11 128.418C121.817 128.925 123.137 129.658 124.07 130.618C125.004 131.578 125.47 132.698 125.47 133.978C125.47 134.938 124.764 136.218 123.35 137.818C121.937 139.418 119.804 141.231 116.95 143.258H123.95L125.51 139.618L128.35 140.458V152.058ZM153.368 127.578C155.794 127.578 157.954 128.071 159.848 129.058C161.768 130.045 163.248 131.405 164.288 133.138C165.354 134.871 165.888 136.805 165.888 138.938C165.888 141.231 165.074 143.365 163.448 145.338C161.848 147.285 159.848 148.831 157.448 149.978C155.048 151.125 152.741 151.698 150.528 151.698C148.101 151.698 145.941 151.205 144.048 150.218C142.154 149.231 140.674 147.871 139.608 146.138C138.541 144.405 138.008 142.471 138.008 140.338C138.008 138.045 138.808 135.925 140.408 133.978C142.034 132.005 144.048 130.445 146.448 129.298C148.848 128.151 151.154 127.578 153.368 127.578ZM151.048 132.538C148.114 132.538 146.648 134.498 146.648 138.418C146.648 140.818 147.181 142.805 148.248 144.378C149.314 145.951 150.848 146.738 152.848 146.738C155.781 146.738 157.248 144.765 157.248 140.818C157.248 138.418 156.714 136.445 155.648 134.898C154.581 133.325 153.048 132.538 151.048 132.538ZM199.843 152.058L196.043 151.338H175.683V148.498C179.016 145.991 181.536 144.005 183.243 142.538C184.976 141.045 186.189 139.831 186.883 138.898C187.576 137.938 187.923 137.058 187.923 136.258C187.923 135.431 187.603 134.751 186.963 134.218C186.349 133.685 185.563 133.418 184.603 133.418C182.789 133.418 180.096 134.111 176.523 135.498L175.323 132.778L180.803 128.378C182.136 127.871 183.776 127.618 185.723 127.618C187.963 127.618 189.923 127.885 191.603 128.418C193.309 128.925 194.629 129.658 195.563 130.618C196.496 131.578 196.963 132.698 196.963 133.978C196.963 134.938 196.256 136.218 194.843 137.818C193.429 139.418 191.296 141.231 188.443 143.258H195.443L197.003 139.618L199.843 140.458V152.058ZM233.46 152.058L229.66 151.338H209.3V148.498C212.633 145.991 215.153 144.005 216.86 142.538C218.593 141.045 219.806 139.831 220.5 138.898C221.193 137.938 221.54 137.058 221.54 136.258C221.54 135.431 221.22 134.751 220.58 134.218C219.966 133.685 219.18 133.418 218.22 133.418C216.406 133.418 213.713 134.111 210.14 135.498L208.94 132.778L214.42 128.378C215.753 127.871 217.393 127.618 219.34 127.618C221.58 127.618 223.54 127.885 225.22 128.418C226.926 128.925 228.246 129.658 229.18 130.618C230.113 131.578 230.58 132.698 230.58 133.978C230.58 134.938 229.873 136.218 228.46 137.818C227.046 139.418 224.913 141.231 222.06 143.258H229.06L230.62 139.618L233.46 140.458V152.058Z" fill="black"/>
</g>
<path d="M115.046 24.6127C-17.4813 49.4958 12.592 244.499 149.707 220.631" stroke="#DEBE16" stroke-width="3"/>
<path d="M110.397 23.6271C110.404 27.1698 115.045 29.7957 119.821 25.3064C124.597 20.8172 123.303 20.9538 118.583 19.1013C113.864 17.2487 110.389 20.0843 110.397 23.6271Z" fill="#DEBE16"/>
<path d="M104.163 31.38C103.525 35.1675 110.527 35.1425 119.63 40.0839C128.732 45.0254 127.742 39.214 119.639 33.3283C111.536 27.4426 104.8 27.5924 104.163 31.38Z" fill="#DEBE16"/>
<line y1="-0.5" x2="14.42" y2="-0.5" transform="matrix(-0.97489 -0.225476 -0.231086 -0.971461 113.957 31.7894)" stroke="#DEBE16"/>
<path d="M93.0986 35.771C92.3465 39.4628 99.2418 39.7 108.042 44.888C116.843 50.0759 116.059 44.3378 108.273 38.2609C100.488 32.184 93.8506 32.0792 93.0986 35.771Z" fill="#DEBE16"/>
<line y1="-0.5" x2="14.2195" y2="-0.5" transform="matrix(-0.965942 -0.261279 -0.199116 -0.978433 102.73 36.5391)" stroke="#DEBE16"/>
<path d="M83.0788 40.343C81.906 44.1996 88.8945 44.7698 97.2747 50.6469C105.655 56.524 105.491 50.4391 98.2414 43.6721C90.9922 36.9051 84.2516 36.4864 83.0788 40.343Z" fill="#DEBE16"/>
<line y1="-0.5" x2="14.2961" y2="-0.5" transform="matrix(-0.948715 -0.318535 -0.0902923 -0.994285 92.7917 41.5996)" stroke="#DEBE16"/>
<path d="M71.7943 47.3737C71.0153 51.3279 78.026 51.1976 86.955 56.2086C95.8841 61.2195 95.1088 55.1817 87.2155 49.1724C79.3221 43.1631 72.5733 43.4194 71.7943 47.3737Z" fill="#DEBE16"/>
<line y1="-0.5" x2="14.3002" y2="-0.5" transform="matrix(-0.9757 -0.222162 -0.189855 -0.980351 81.585 47.6545)" stroke="#DEBE16"/>
<path d="M63.5109 55.3363C63.1232 59.3475 70.0877 58.5357 79.4652 62.6539C88.8428 66.7722 87.4794 60.8386 79.0347 55.626C70.5901 50.4134 63.8986 51.3252 63.5109 55.3363Z" fill="#DEBE16"/>
<line y1="-0.5" x2="14.3036" y2="-0.5" transform="matrix(-0.992577 -0.126141 -0.285064 -0.957262 73.2825 54.6631)" stroke="#DEBE16"/>
<path d="M54.235 62.3126C54.0779 66.3392 60.9844 65.1324 70.5828 68.7102C80.1811 72.2881 78.4797 66.4418 69.75 61.7183C61.0202 56.9948 54.392 58.2859 54.235 62.3126Z" fill="#DEBE16"/>
<line y1="-0.5" x2="14.3053" y2="-0.5" transform="matrix(-0.998072 -0.0694371 -0.339499 -0.939508 63.9517 61.0845)" stroke="#DEBE16"/>
<path d="M50.1914 71.4991C49.9607 75.5222 56.8882 74.4409 66.4195 78.1924C75.9509 81.9439 74.3567 76.0677 65.7148 71.1865C57.0728 66.3054 50.4221 67.4759 50.1914 71.4991Z" fill="#DEBE16"/>
<line y1="-0.5" x2="14.3047" y2="-0.5" transform="matrix(-0.996672 -0.0875463 -0.322257 -0.945505 59.9292 70.4475)" stroke="#DEBE16"/>
<path d="M44.7985 80.2431C45.1062 84.2611 51.8281 82.2727 61.7752 84.7296C71.7222 87.1865 69.3587 81.5733 60.1426 77.879C50.9264 74.1848 44.4907 76.2251 44.7985 80.2431Z" fill="#DEBE16"/>
<line y1="-0.5" x2="14.3078" y2="-0.5" transform="matrix(-0.999296 0.0451163 -0.445493 -0.894538 54.3098 77.9126)" stroke="#DEBE16"/>
<path d="M40.8478 91.5875C40.9459 95.616 47.7623 93.9776 57.5681 96.9452C67.3738 99.9129 65.3057 94.1851 56.2943 90.0196C47.2829 85.854 40.7496 87.559 40.8478 91.5875Z" fill="#DEBE16"/>
<line y1="-0.5" x2="14.3068" y2="-0.5" transform="matrix(-1.00037 -0.00658768 -0.398309 -0.916336 50.4675 89.7515)" stroke="#DEBE16"/>
<path d="M36.8206 104.329C37.4141 108.315 43.9772 105.856 54.0744 107.603C64.1715 109.349 61.4136 103.917 51.9573 100.885C42.501 97.8525 36.227 100.343 36.8206 104.329Z" fill="#DEBE16"/>
<line y1="-0.5" x2="14.3089" y2="-0.5" transform="matrix(-0.993481 0.115735 -0.508178 -0.860758 46.1411 101.331)" stroke="#DEBE16"/>
<path d="M36.0707 117.078C37.1467 120.963 43.3607 117.726 53.5961 118.235C63.8315 118.745 60.4307 113.688 50.6742 111.824C40.9178 109.961 34.9947 113.194 36.0707 117.078Z" fill="#DEBE16"/>
<line y1="-0.5" x2="14.3095" y2="-0.5" transform="matrix(-0.971916 0.235307 -0.609545 -0.792764 44.9561 112.972)" stroke="#DEBE16"/>
<path d="M34.0321 127.235C35.1081 131.119 41.3221 127.883 51.5575 128.392C61.7929 128.902 58.3921 123.845 48.6356 121.981C38.8792 120.118 32.9561 123.35 34.0321 127.235Z" fill="#DEBE16"/>
<line y1="-0.5" x2="14.3095" y2="-0.5" transform="matrix(-0.971916 0.235307 -0.609545 -0.792764 42.9172 123.129)" stroke="#DEBE16"/>
<path d="M35.0516 138.407C36.1277 142.292 42.3416 139.055 52.577 139.564C62.8125 140.074 59.4116 135.017 49.6552 133.153C39.8987 131.29 33.9756 134.523 35.0516 138.407Z" fill="#DEBE16"/>
<line y1="-0.5" x2="14.3095" y2="-0.5" transform="matrix(-0.971916 0.235307 -0.609545 -0.792764 43.9368 134.301)" stroke="#DEBE16"/>
<path d="M37.6594 149.484C39.0431 153.27 44.978 149.55 55.2216 149.244C65.4652 148.938 61.6702 144.168 51.7956 143.086C41.921 142.004 36.2757 145.697 37.6594 149.484Z" fill="#DEBE16"/>
<line y1="-0.5" x2="14.3092" y2="-0.5" transform="matrix(-0.949994 0.311823 -0.671088 -0.741778 46.1875 144.684)" stroke="#DEBE16"/>
<path d="M39.711 161.307C41.6847 164.825 46.9461 160.207 57.0087 158.273C67.0714 156.339 62.5595 152.235 52.6383 152.74C42.7171 153.245 37.7373 157.79 39.711 161.307Z" fill="#DEBE16"/>
<line y1="-0.5" x2="14.3068" y2="-0.5" transform="matrix(-0.887865 0.459244 -0.78148 -0.625279 47.3591 155.212)" stroke="#DEBE16"/>
<path d="M45.8693 171.62C47.8678 175.124 53.0964 170.469 63.1452 168.464C73.1939 166.46 68.6531 162.387 58.7357 162.962C48.8183 163.536 43.8708 168.117 45.8693 171.62Z" fill="#DEBE16"/>
<line y1="-0.5" x2="14.3066" y2="-0.5" transform="matrix(-0.884605 0.465471 -0.785881 -0.619776 53.4739 165.47)" stroke="#DEBE16"/>
<path d="M52.5639 182.989C54.9195 186.265 59.6304 181.091 69.4134 178.049C79.1964 175.008 74.2527 171.431 64.4502 173.037C54.6476 174.643 50.2084 179.713 52.5639 182.989Z" fill="#DEBE16"/>
<line y1="-0.5" x2="14.3038" y2="-0.5" transform="matrix(-0.831016 0.555257 -0.846619 -0.534402 59.481 176.081)" stroke="#DEBE16"/>
<path d="M61.6148 193.951C64.5908 196.68 68.1448 190.658 77.1008 185.695C86.0568 180.732 80.4853 178.233 71.2167 181.795C61.948 185.356 58.6387 191.222 61.6148 193.951Z" fill="#DEBE16"/>
<line y1="-0.5" x2="14.2961" y2="-0.5" transform="matrix(-0.700426 0.712657 -0.937989 -0.351311 66.9739 185.783)" stroke="#DEBE16"/>
<path d="M73.5687 203.112C77.3815 204.457 78.2757 197.528 84.5553 189.459C90.8348 181.391 84.7261 181.273 77.6065 188.175C70.4868 195.078 69.7559 201.767 73.5687 203.112Z" fill="#DEBE16"/>
<line y1="-0.5" x2="14.2775" y2="-0.5" transform="matrix(-0.363647 0.930683 -1.00072 0.0439529 75.2771 193.503)" stroke="#DEBE16"/>
<path d="M88.2738 211.557C92.2044 212.508 92.3846 205.525 97.8054 196.86C103.226 188.195 97.1373 188.699 90.7614 196.289C84.3854 203.878 84.3432 210.607 88.2738 211.557Z" fill="#DEBE16"/>
<line y1="-0.5" x2="14.2731" y2="-0.5" transform="matrix(-0.266549 0.963076 -0.990911 0.145401 88.9895 201.825)" stroke="#DEBE16"/>
<path d="M99.7629 215.54C103.798 215.811 102.786 208.899 106.65 199.443C110.515 189.987 104.601 191.513 99.6114 200.072C94.6219 208.63 95.7273 215.268 99.7629 215.54Z" fill="#DEBE16"/>
<line y1="-0.5" x2="14.2671" y2="-0.5" transform="matrix(-0.098537 0.994605 -0.951608 0.310919 98.8093 205.828)" stroke="#DEBE16"/>
<path d="M114.429 218.311C118.439 217.788 116.083 211.208 118.009 201.18C119.934 191.152 114.436 193.806 111.231 203.174C108.026 212.542 110.418 218.834 114.429 218.311Z" fill="#DEBE16"/>
<line y1="-0.5" x2="14.2629" y2="-0.5" transform="matrix(0.0994922 0.994809 -0.8717 0.491027 111.579 208.975)" stroke="#DEBE16"/>
<path d="M125.911 219.544C129.949 219.314 128.081 212.58 130.735 202.719C133.389 192.857 127.711 195.105 123.829 204.215C119.947 213.325 121.873 219.775 125.911 219.544Z" fill="#DEBE16"/>
<line y1="-0.5" x2="14.2641" y2="-0.5" transform="matrix(0.026436 0.999305 -0.905331 0.426425 123.752 210.026)" stroke="#DEBE16"/>
<path d="M142.382 217.642C146.38 217.026 143.87 210.503 145.559 200.433C147.249 190.362 141.814 193.144 138.83 202.584C135.846 212.024 138.385 218.259 142.382 217.642Z" fill="#DEBE16"/>
<line y1="-0.5" x2="14.2626" y2="-0.5" transform="matrix(0.122813 0.992238 -0.859934 0.511194 139.314 208.375)" stroke="#DEBE16"/>
<path d="M89.0254 27.6173C85.5521 25.4426 90.5176 20.4752 93.0028 10.5657C95.488 0.656239 99.4268 5.39421 98.4012 15.2474C97.3756 25.1007 92.4986 29.7919 89.0254 27.6173Z" fill="#DEBE16"/>
<line y1="-0.5" x2="14.2829" y2="-0.5" transform="matrix(-0.513477 0.858667 0.588916 0.806948 95.6167 20.3601)" stroke="#DEBE16"/>
<path d="M78.3716 33.2312C74.7907 31.4124 79.184 25.8907 80.7156 15.662C82.2471 5.43325 86.5122 9.78045 86.3983 19.798C86.2843 29.8155 81.9524 35.0501 78.3716 33.2312Z" fill="#DEBE16"/>
<line y1="-0.5" x2="14.433" y2="-0.5" transform="matrix(-0.4189 0.90839 0.652938 0.756482 84.1433 25.2345)" stroke="#DEBE16"/>
<path d="M68.5742 38.2719C64.7785 36.9547 68.3779 30.8895 68.5001 20.5483C68.6223 10.2071 73.4408 13.9366 74.6942 23.8766C75.9476 33.8166 72.3699 39.5891 68.5742 38.2719Z" fill="#DEBE16"/>
<line y1="-0.5" x2="14.4313" y2="-0.5" transform="matrix(-0.291151 0.956788 0.750036 0.661051 73.2019 29.5677)" stroke="#DEBE16"/>
<path d="M58.114 46.2348C54.2399 45.1678 57.4333 38.881 56.8762 28.554C56.3191 18.2269 61.3722 21.6344 63.2756 31.4714C65.1791 41.3084 61.988 47.3017 58.114 46.2348Z" fill="#DEBE16"/>
<line y1="-0.5" x2="14.4311" y2="-0.5" transform="matrix(-0.227701 0.973728 0.791836 0.610746 62.1602 37.2477)" stroke="#DEBE16"/>
<path d="M48.8943 56.2197C44.8973 55.7978 47.0165 49.0755 44.7729 38.9781C42.5292 28.8806 48.0733 31.4195 51.5648 40.8144C55.0563 50.2092 52.8913 56.6415 48.8943 56.2197Z" fill="#DEBE16"/>
<line y1="-0.5" x2="14.4324" y2="-0.5" transform="matrix(-0.0649056 0.997619 0.881397 0.473623 51.4119 46.6947)" stroke="#DEBE16"/>
<path d="M42.6544 64.489C38.6434 64.7463 39.5917 57.7639 35.6672 48.1895C31.7428 38.6151 37.6379 40.1839 42.673 48.8557C47.7081 57.5275 46.6655 64.2318 42.6544 64.489Z" fill="#DEBE16"/>
<line y1="-0.5" x2="14.4363" y2="-0.5" transform="matrix(0.105247 0.993924 0.949138 0.318416 43.5198 54.6771)" stroke="#DEBE16"/>
<path d="M37.032 74.4911C33.0482 75.0226 33.5121 67.9918 28.9359 58.709C24.3597 49.4263 30.3491 50.5873 35.971 58.8935C41.593 67.1996 41.0158 73.9595 37.032 74.4911Z" fill="#DEBE16"/>
<line y1="-0.5" x2="14.4386" y2="-0.5" transform="matrix(0.173598 0.984204 0.968917 0.252624 37.2178 64.6433)" stroke="#DEBE16"/>
<path d="M32.2519 86.159C28.3541 87.1365 28.016 80.0985 22.4142 71.3917C16.8125 62.6848 22.8953 63.1628 29.4251 70.7814C35.9549 78.3999 36.1497 85.1814 32.2519 86.159Z" fill="#DEBE16"/>
<line y1="-0.5" x2="14.4429" y2="-0.5" transform="matrix(0.284251 0.958002 0.991479 0.141713 31.3174 76.3538)" stroke="#DEBE16"/>
<path d="M28.3136 98.8788C24.5675 100.33 23.3566 93.388 16.7152 85.4397C10.0737 77.4915 16.1691 77.2149 23.5961 83.9687C31.0231 90.7225 32.0598 97.4277 28.3136 98.8788Z" fill="#DEBE16"/>
<line y1="-0.5" x2="14.4484" y2="-0.5" transform="matrix(0.401054 0.915182 1.00157 0.0182305 26.1667 89.2639)" stroke="#DEBE16"/>
<path d="M26.9674 115.07C23.6217 117.289 20.942 110.769 12.7415 104.428C4.54105 98.0867 10.4344 96.5118 19.1445 101.518C27.8546 106.524 30.3131 112.851 26.9674 115.07Z" fill="#DEBE16"/>
<line y1="-0.5" x2="14.4588" y2="-0.5" transform="matrix(0.588636 0.807381 0.982303 -0.196627 22.7971 106.139)" stroke="#DEBE16"/>
<path d="M24.3758 125.339C21.6711 128.301 17.4823 122.623 7.98172 118.456C-1.51886 114.289 3.81428 111.335 13.4839 114.085C23.1535 116.834 27.0805 122.376 24.3758 125.339Z" fill="#DEBE16"/>
<line y1="-0.5" x2="14.4696" y2="-0.5" transform="matrix(0.767233 0.640329 0.905162 -0.428475 18.1538 117.685)" stroke="#DEBE16"/>
<path d="M25.246 135.8C22.9708 139.101 18.046 134.044 8.06486 131.203C-1.91626 128.362 2.96422 124.713 12.9192 126.127C22.8742 127.54 27.5213 132.499 25.246 135.8Z" fill="#DEBE16"/>
<line y1="-0.5" x2="14.4743" y2="-0.5" transform="matrix(0.84723 0.530268 0.838347 -0.54717 18.0371 129.06)" stroke="#DEBE16"/>
<path d="M31.7176 160.93C29.8002 164.449 24.373 159.931 14.1489 158.142C3.92485 156.353 8.39691 152.217 18.4456 152.589C28.4943 152.961 33.635 157.41 31.7176 160.93Z" fill="#DEBE16"/>
<line y1="-0.5" x2="14.477" y2="-0.5" transform="matrix(0.89794 0.439297 0.776558 -0.631299 23.8425 154.975)" stroke="#DEBE16"/>
<path d="M35.7955 171.086C33.8781 174.606 28.4509 170.088 18.2268 168.298C8.00273 166.509 12.4748 162.374 22.5235 162.746C32.5722 163.117 37.7129 167.567 35.7955 171.086Z" fill="#DEBE16"/>
<line y1="-0.5" x2="14.477" y2="-0.5" transform="matrix(0.89794 0.439297 0.776558 -0.631299 27.9202 165.131)" stroke="#DEBE16"/>
<path d="M53.3783 196.486C52.5543 200.406 46.0548 197.628 35.745 198.834C25.4353 200.041 28.5294 194.801 38.2632 192.287C47.9971 189.773 54.2024 192.567 53.3783 196.486Z" fill="#DEBE16"/>
<line y1="-0.5" x2="14.4792" y2="-0.5" transform="matrix(0.986515 0.164329 0.562293 -0.826653 44.1204 193.031)" stroke="#DEBE16"/>
<path d="M66.6313 207.658C65.8072 211.578 59.3077 208.8 48.998 210.006C38.6882 211.212 41.7823 205.973 51.5161 203.459C61.25 200.945 67.4553 203.739 66.6313 207.658Z" fill="#DEBE16"/>
<line y1="-0.5" x2="14.4792" y2="-0.5" transform="matrix(0.986515 0.164329 0.562293 -0.826653 57.3728 204.203)" stroke="#DEBE16"/>
<path d="M80.5034 216.587C80.5377 220.591 73.5929 219.258 63.7788 222.629C53.9648 225.999 55.8656 220.222 64.837 215.697C73.8083 211.172 80.4691 212.583 80.5034 216.587Z" fill="#DEBE16"/>
<line y1="-0.5" x2="14.4757" y2="-0.5" transform="matrix(0.999233 -0.0491554 0.372295 -0.927077 70.7188 215.179)" stroke="#DEBE16"/>
<path d="M94.3065 222.059C95.1145 225.982 88.0421 226.007 79.0638 231.198C70.0854 236.389 70.8334 230.356 78.7615 224.193C86.6896 218.031 93.4984 218.136 94.3065 222.059Z" fill="#DEBE16"/>
<line y1="-0.5" x2="14.4693" y2="-0.5" transform="matrix(0.971431 -0.24015 0.186003 -0.981051 84.4326 222.556)" stroke="#DEBE16"/>
<path d="M109.967 226.172C111.607 229.827 104.708 231.377 97.0699 238.38C89.4316 245.384 88.8516 239.332 95.2534 231.607C101.655 223.881 108.326 222.516 109.967 226.172Z" fill="#DEBE16"/>
<line y1="-0.5" x2="14.4597" y2="-0.5" transform="matrix(0.896853 -0.444173 -0.0314748 -0.997724 100.435 228.785)" stroke="#DEBE16"/>
<path d="M123.684 227.051C126.73 229.663 121.15 233.991 117.23 243.567C113.311 253.144 110.2 247.914 112.692 238.208C115.184 228.502 120.637 224.439 123.684 227.051Z" fill="#DEBE16"/>
<line y1="-0.5" x2="14.4398" y2="-0.5" transform="matrix(0.622619 -0.783345 -0.454602 -0.889131 116.176 233.458)" stroke="#DEBE16"/>
<path d="M139.995 227.051C143.041 229.663 137.461 233.991 133.541 243.567C129.622 253.144 126.511 247.914 129.003 238.208C131.495 228.502 136.948 224.439 139.995 227.051Z" fill="#DEBE16"/>
<line y1="-0.5" x2="14.4398" y2="-0.5" transform="matrix(0.622619 -0.783345 -0.454602 -0.889131 132.487 233.458)" stroke="#DEBE16"/>
<path d="M44.0311 183.923C42.3292 187.551 36.6396 183.366 26.3262 182.191C16.0128 181.016 20.2276 176.621 30.2806 176.391C40.3336 176.162 45.733 180.296 44.0311 183.923Z" fill="#DEBE16"/>
<line y1="-0.5" x2="14.4781" y2="-0.5" transform="matrix(0.922713 0.384788 0.737145 -0.676606 35.8115 178.451)" stroke="#DEBE16"/>
<path d="M28.3039 149.003C26.0286 152.304 21.1038 147.247 11.1227 144.405C1.1416 141.564 6.02208 137.915 15.9771 139.329C25.9321 140.742 30.5791 145.702 28.3039 149.003Z" fill="#DEBE16"/>
<line y1="-0.5" x2="14.4743" y2="-0.5" transform="matrix(0.84723 0.530268 0.838347 -0.54717 21.095 142.262)" stroke="#DEBE16"/>
<path d="M100.306 25.0165C97.3109 22.6471 102.485 18.0655 105.894 8.44792C109.302 -1.16968 112.448 3.75895 110.405 13.4151C108.362 23.0712 103.301 27.3859 100.306 25.0165Z" fill="#DEBE16"/>
<line y1="-0.5" x2="14.2128" y2="-0.5" transform="matrix(-0.575924 0.818195 0.481872 0.874778 107.247 18.2802)" stroke="#DEBE16"/>
<path d="M147.246 220.818C147.246 220.818 154.552 219.863 161.518 220.818C169.096 221.858 172.222 224.775 180.378 234.022C188.533 243.268 194.14 243.67 194.14 243.67" stroke="#DEBE16" stroke-width="3"/>
<path d="M221.243 23.597C353.77 48.4801 323.696 243.483 186.582 219.615" stroke="#DEBE16" stroke-width="3"/>
<path d="M225.892 22.6113C225.885 26.1541 221.244 28.7799 216.468 24.2907C211.692 19.8014 212.986 19.938 217.705 18.0855C222.425 16.233 225.899 19.0686 225.892 22.6113Z" fill="#DEBE16"/>
<path d="M232.126 30.3642C232.764 34.1518 225.761 34.1268 216.659 39.0682C207.557 44.0096 208.546 38.1982 216.649 32.3125C224.752 26.4268 231.488 26.5766 232.126 30.3642Z" fill="#DEBE16"/>
<line y1="-0.5" x2="14.42" y2="-0.5" transform="matrix(0.97489 -0.225476 0.231086 -0.971462 222.331 30.7743)" stroke="#DEBE16"/>
<path d="M243.19 34.7556C243.942 38.4474 237.047 38.6847 228.246 43.8726C219.445 49.0605 220.23 43.3225 228.015 37.2456C235.801 31.1687 242.438 31.0638 243.19 34.7556Z" fill="#DEBE16"/>
<line y1="-0.5" x2="14.2195" y2="-0.5" transform="matrix(0.965942 -0.261279 0.199116 -0.978434 233.559 35.5238)" stroke="#DEBE16"/>
<path d="M253.21 39.3279C254.382 43.1845 247.394 43.7546 239.014 49.6317C230.634 55.5088 230.798 49.424 238.047 42.6569C245.296 35.8899 252.037 35.4713 253.21 39.3279Z" fill="#DEBE16"/>
<line y1="-0.5" x2="14.2961" y2="-0.5" transform="matrix(0.948715 -0.318535 0.0902922 -0.994286 243.497 40.5844)" stroke="#DEBE16"/>
<path d="M264.494 46.3579C265.273 50.3122 258.262 50.1819 249.333 55.1928C240.404 60.2038 241.18 54.1659 249.073 48.1566C256.966 42.1473 263.715 42.4037 264.494 46.3579Z" fill="#DEBE16"/>
<line y1="-0.5" x2="14.3002" y2="-0.5" transform="matrix(0.9757 -0.222162 0.189855 -0.980351 254.703 46.6388)" stroke="#DEBE16"/>
<path d="M272.778 54.3209C273.166 58.3321 266.201 57.5203 256.824 61.6385C247.446 65.7568 248.809 59.8232 257.254 54.6106C265.699 49.398 272.39 50.3098 272.778 54.3209Z" fill="#DEBE16"/>
<line y1="-0.5" x2="14.3036" y2="-0.5" transform="matrix(0.992577 -0.126141 0.285064 -0.957262 263.006 53.6479)" stroke="#DEBE16"/>
<path d="M282.054 61.2978C282.211 65.3245 275.304 64.1176 265.706 67.6955C256.108 71.2733 257.809 65.427 266.539 60.7035C275.269 55.9801 281.897 57.2711 282.054 61.2978Z" fill="#DEBE16"/>
<line y1="-0.5" x2="14.3052" y2="-0.5" transform="matrix(0.998072 -0.0694372 0.339499 -0.939508 272.337 60.0696)" stroke="#DEBE16"/>
<path d="M286.097 70.4834C286.328 74.5066 279.4 73.4253 269.869 77.1768C260.337 80.9283 261.932 75.0521 270.574 70.1709C279.215 65.2898 285.866 66.4603 286.097 70.4834Z" fill="#DEBE16"/>
<line y1="-0.5" x2="14.3047" y2="-0.5" transform="matrix(0.996672 -0.0875464 0.322257 -0.945505 276.359 69.432)" stroke="#DEBE16"/>
<path d="M291.49 79.228C291.182 83.246 284.46 81.2575 274.513 83.7144C264.566 86.1713 266.93 80.5582 276.146 76.8639C285.362 73.1696 291.798 75.2099 291.49 79.228Z" fill="#DEBE16"/>
<line y1="-0.5" x2="14.3078" y2="-0.5" transform="matrix(0.999296 0.0451163 0.445493 -0.894538 281.979 76.8967)" stroke="#DEBE16"/>
<path d="M295.44 90.5716C295.342 94.6001 288.526 92.9617 278.72 95.9294C268.914 98.897 270.982 93.1693 279.994 89.0037C289.005 84.8381 295.538 86.5431 295.44 90.5716Z" fill="#DEBE16"/>
<line y1="-0.5" x2="14.3068" y2="-0.5" transform="matrix(1.00037 -0.00658772 0.398309 -0.916337 285.821 88.7361)" stroke="#DEBE16"/>
<path d="M299.468 103.313C298.874 107.299 292.311 104.84 282.214 106.586C272.117 108.333 274.875 102.901 284.331 99.8689C293.788 96.8363 300.062 99.3271 299.468 103.313Z" fill="#DEBE16"/>
<line y1="-0.5" x2="14.3089" y2="-0.5" transform="matrix(0.993481 0.115735 0.508178 -0.860758 290.147 100.315)" stroke="#DEBE16"/>
<path d="M300.218 116.063C299.142 119.947 292.928 116.711 282.692 117.22C272.457 117.73 275.858 112.673 285.614 110.809C295.371 108.945 301.294 112.178 300.218 116.063Z" fill="#DEBE16"/>
<line y1="-0.5" x2="14.3095" y2="-0.5" transform="matrix(0.971916 0.235307 0.609545 -0.792765 291.332 111.957)" stroke="#DEBE16"/>
<path d="M302.257 126.22C301.181 130.104 294.967 126.868 284.731 127.377C274.496 127.887 277.897 122.83 287.653 120.966C297.41 119.102 303.333 122.335 302.257 126.22Z" fill="#DEBE16"/>
<line y1="-0.5" x2="14.3095" y2="-0.5" transform="matrix(0.971916 0.235307 0.609545 -0.792765 293.371 122.114)" stroke="#DEBE16"/>
<path d="M301.237 137.392C300.161 141.276 293.947 138.04 283.712 138.549C273.476 139.058 276.877 134.001 286.634 132.138C296.39 130.274 302.313 133.507 301.237 137.392Z" fill="#DEBE16"/>
<line y1="-0.5" x2="14.3095" y2="-0.5" transform="matrix(0.971916 0.235307 0.609545 -0.792765 292.352 133.286)" stroke="#DEBE16"/>
<path d="M298.629 148.468C297.245 152.254 291.311 148.534 281.067 148.228C270.823 147.922 274.618 143.152 284.493 142.07C294.368 140.988 300.013 144.681 298.629 148.468Z" fill="#DEBE16"/>
<line y1="-0.5" x2="14.3092" y2="-0.5" transform="matrix(0.949994 0.311824 0.671088 -0.741778 290.101 143.669)" stroke="#DEBE16"/>
<path d="M296.577 160.293C294.604 163.81 289.342 159.192 279.28 157.258C269.217 155.324 273.729 151.22 283.65 151.725C293.571 152.23 298.551 156.775 296.577 160.293Z" fill="#DEBE16"/>
<line y1="-0.5" x2="14.3068" y2="-0.5" transform="matrix(0.887865 0.459245 0.78148 -0.62528 288.929 154.197)" stroke="#DEBE16"/>
<path d="M290.419 170.604C288.421 174.107 283.192 169.453 273.144 167.448C263.095 165.444 267.636 161.371 277.553 161.946C287.47 162.52 292.418 167.1 290.419 170.604Z" fill="#DEBE16"/>
<line y1="-0.5" x2="14.3066" y2="-0.5" transform="matrix(0.884605 0.465472 0.78588 -0.619776 282.815 164.454)" stroke="#DEBE16"/>
<path d="M283.725 181.976C281.369 185.251 276.658 180.077 266.875 177.036C257.092 173.995 262.036 170.418 271.838 172.023C281.641 173.629 286.08 178.7 283.725 181.976Z" fill="#DEBE16"/>
<line y1="-0.5" x2="14.3038" y2="-0.5" transform="matrix(0.831016 0.555257 0.846619 -0.534402 276.808 175.067)" stroke="#DEBE16"/>
<path d="M274.674 192.935C271.698 195.664 268.144 189.642 259.188 184.679C250.232 179.716 255.803 177.217 265.072 180.779C274.34 184.34 277.65 190.206 274.674 192.935Z" fill="#DEBE16"/>
<line y1="-0.5" x2="14.2961" y2="-0.5" transform="matrix(0.700426 0.712657 0.937989 -0.351311 269.314 184.767)" stroke="#DEBE16"/>
<path d="M262.72 202.095C258.907 203.441 258.013 196.512 251.733 188.443C245.454 180.374 251.562 180.257 258.682 187.159C265.802 194.061 266.533 200.75 262.72 202.095Z" fill="#DEBE16"/>
<line y1="-0.5" x2="14.2775" y2="-0.5" transform="matrix(0.363647 0.930683 1.00072 0.0439528 261.012 192.487)" stroke="#DEBE16"/>
<path d="M248.015 210.542C244.084 211.493 243.904 204.51 238.483 195.845C233.062 187.18 239.151 187.684 245.527 195.273C251.903 202.863 251.945 209.592 248.015 210.542Z" fill="#DEBE16"/>
<line y1="-0.5" x2="14.2731" y2="-0.5" transform="matrix(0.266549 0.963076 0.990911 0.145401 247.299 200.811)" stroke="#DEBE16"/>
<path d="M236.526 214.523C232.49 214.795 233.503 207.883 229.638 198.426C225.773 188.97 231.688 190.497 236.677 199.055C241.667 207.614 240.561 214.251 236.526 214.523Z" fill="#DEBE16"/>
<line y1="-0.5" x2="14.2671" y2="-0.5" transform="matrix(0.0985369 0.994605 0.951608 0.310919 237.479 204.812)" stroke="#DEBE16"/>
<path d="M221.86 217.295C217.849 216.772 220.205 210.192 218.28 200.164C216.355 190.136 221.853 192.79 225.058 202.158C228.263 211.526 225.871 217.818 221.86 217.295Z" fill="#DEBE16"/>
<line y1="-0.5" x2="14.2629" y2="-0.5" transform="matrix(-0.0994921 0.994809 0.8717 0.491027 224.71 207.959)" stroke="#DEBE16"/>
<path d="M210.378 218.529C206.34 218.298 208.208 211.565 205.554 201.703C202.9 191.842 208.578 194.09 212.46 203.2C216.342 212.31 214.416 218.759 210.378 218.529Z" fill="#DEBE16"/>
<line y1="-0.5" x2="14.2641" y2="-0.5" transform="matrix(-0.026436 0.999305 0.905331 0.426425 212.537 209.01)" stroke="#DEBE16"/>
<path d="M193.906 216.626C189.909 216.01 192.419 209.487 190.729 199.417C189.04 189.346 194.474 192.128 197.458 201.568C200.443 211.008 197.903 217.243 193.906 216.626Z" fill="#DEBE16"/>
<line y1="-0.5" x2="14.2626" y2="-0.5" transform="matrix(-0.122813 0.992238 0.859933 0.511194 196.974 207.36)" stroke="#DEBE16"/>
<path d="M247.262 26.6019C250.735 24.4272 245.77 19.4598 243.285 9.55032C240.8 -0.359142 236.861 4.37882 237.886 14.2321C238.912 24.0853 243.789 28.7765 247.262 26.6019Z" fill="#DEBE16"/>
<line y1="-0.5" x2="14.2829" y2="-0.5" transform="matrix(0.513477 0.858667 -0.588915 0.806948 240.671 19.3447)" stroke="#DEBE16"/>
<path d="M257.917 32.2156C261.498 30.3968 257.105 24.8751 255.573 14.6464C254.041 4.41762 249.776 8.76483 249.89 18.7823C250.004 28.7998 254.336 34.0344 257.917 32.2156Z" fill="#DEBE16"/>
<line y1="-0.5" x2="14.433" y2="-0.5" transform="matrix(0.418899 0.90839 -0.652938 0.756483 252.145 24.2192)" stroke="#DEBE16"/>
<path d="M267.714 37.2568C271.51 35.9396 267.911 29.8744 267.788 19.5332C267.666 9.19195 262.848 12.9214 261.594 22.8614C260.341 32.8015 263.919 38.5739 267.714 37.2568Z" fill="#DEBE16"/>
<line y1="-0.5" x2="14.4313" y2="-0.5" transform="matrix(0.291151 0.956788 -0.750036 0.661051 263.087 28.5526)" stroke="#DEBE16"/>
<path d="M278.175 45.2193C282.049 44.1523 278.855 37.8655 279.412 27.5384C279.969 17.2114 274.916 20.6189 273.013 30.4559C271.11 40.2929 274.301 46.2862 278.175 45.2193Z" fill="#DEBE16"/>
<line y1="-0.5" x2="14.4311" y2="-0.5" transform="matrix(0.227701 0.973728 -0.791835 0.610746 274.128 36.2323)" stroke="#DEBE16"/>
<path d="M287.394 55.2035C291.391 54.7817 289.272 48.0594 291.515 37.9619C293.759 27.8645 288.215 30.4034 284.724 39.7982C281.232 49.1931 283.397 55.6254 287.394 55.2035Z" fill="#DEBE16"/>
<line y1="-0.5" x2="14.4324" y2="-0.5" transform="matrix(0.0649055 0.997619 -0.881397 0.473623 284.877 45.6788)" stroke="#DEBE16"/>
<path d="M293.634 63.4732C297.645 63.7304 296.697 56.748 300.622 47.1736C304.546 37.5993 298.651 39.1681 293.616 47.8398C288.581 56.5116 289.623 63.2159 293.634 63.4732Z" fill="#DEBE16"/>
<line y1="-0.5" x2="14.4363" y2="-0.5" transform="matrix(-0.105246 0.993924 -0.949138 0.318416 292.769 53.6616)" stroke="#DEBE16"/>
<path d="M299.257 73.4754C303.24 74.007 302.776 66.9761 307.353 57.6934C311.929 48.4106 305.939 49.5717 300.318 57.8779C294.696 66.184 295.273 72.9439 299.257 73.4754Z" fill="#DEBE16"/>
<line y1="-0.5" x2="14.4386" y2="-0.5" transform="matrix(-0.173598 0.984204 -0.968917 0.252624 299.071 63.6274)" stroke="#DEBE16"/>
<path d="M304.037 85.1429C307.934 86.1204 308.273 79.0824 313.874 70.3756C319.476 61.6687 313.393 62.1467 306.863 69.7653C300.334 77.3838 300.139 84.1653 304.037 85.1429Z" fill="#DEBE16"/>
<line y1="-0.5" x2="14.4429" y2="-0.5" transform="matrix(-0.284251 0.958002 -0.991479 0.141713 304.971 75.3379)" stroke="#DEBE16"/>
<path d="M307.975 97.8634C311.721 99.3146 312.932 92.3726 319.573 84.4243C326.215 76.4761 320.119 76.1995 312.692 82.9533C305.265 89.7071 304.229 96.4123 307.975 97.8634Z" fill="#DEBE16"/>
<line y1="-0.5" x2="14.4484" y2="-0.5" transform="matrix(-0.401054 0.915182 -1.00157 0.0182305 310.122 88.2488)" stroke="#DEBE16"/>
<path d="M309.32 114.055C312.665 116.274 315.345 109.753 323.546 103.412C331.746 97.0713 325.853 95.4964 317.143 100.503C308.433 105.509 305.974 111.836 309.32 114.055Z" fill="#DEBE16"/>
<line y1="-0.5" x2="14.4588" y2="-0.5" transform="matrix(-0.588636 0.807381 -0.982302 -0.196627 313.49 105.124)" stroke="#DEBE16"/>
<path d="M311.913 124.323C314.617 127.285 318.806 121.608 328.307 117.441C337.807 113.274 332.474 110.32 322.805 113.069C313.135 115.818 309.208 121.361 311.913 124.323Z" fill="#DEBE16"/>
<line y1="-0.5" x2="14.4696" y2="-0.5" transform="matrix(-0.767233 0.640329 -0.905162 -0.428475 318.135 116.669)" stroke="#DEBE16"/>
<path d="M311.043 134.783C313.318 138.084 318.243 133.027 328.224 130.185C338.205 127.344 333.325 123.695 323.37 125.109C313.415 126.523 308.768 131.482 311.043 134.783Z" fill="#DEBE16"/>
<line y1="-0.5" x2="14.4743" y2="-0.5" transform="matrix(-0.84723 0.530269 -0.838347 -0.54717 318.252 128.042)" stroke="#DEBE16"/>
<path d="M304.571 159.914C306.489 163.434 311.916 158.916 322.14 157.127C332.364 155.337 327.892 151.202 317.843 151.574C307.794 151.946 302.654 156.395 304.571 159.914Z" fill="#DEBE16"/>
<line y1="-0.5" x2="14.477" y2="-0.5" transform="matrix(-0.89794 0.439297 -0.776557 -0.631299 312.446 153.959)" stroke="#DEBE16"/>
<path d="M300.493 170.071C302.41 173.59 307.837 169.072 318.062 167.283C328.286 165.494 323.814 161.358 313.765 161.73C303.716 162.102 298.575 166.551 300.493 170.071Z" fill="#DEBE16"/>
<line y1="-0.5" x2="14.477" y2="-0.5" transform="matrix(-0.89794 0.439297 -0.776557 -0.631299 308.368 164.116)" stroke="#DEBE16"/>
<path d="M282.91 195.471C283.735 199.39 290.234 196.612 300.544 197.819C310.854 199.025 307.759 193.786 298.026 191.272C288.292 188.758 282.086 191.552 282.91 195.471Z" fill="#DEBE16"/>
<line y1="-0.5" x2="14.4792" y2="-0.5" transform="matrix(-0.986515 0.164329 -0.562293 -0.826653 292.168 192.016)" stroke="#DEBE16"/>
<path d="M269.658 206.643C270.482 210.562 276.981 207.784 287.291 208.99C297.601 210.197 294.507 204.957 284.773 202.443C275.039 199.929 268.834 202.723 269.658 206.643Z" fill="#DEBE16"/>
<line y1="-0.5" x2="14.4792" y2="-0.5" transform="matrix(-0.986515 0.164329 -0.562293 -0.826653 278.916 203.188)" stroke="#DEBE16"/>
<path d="M255.785 215.571C255.751 219.575 262.696 218.243 272.51 221.613C282.324 224.983 280.423 219.206 271.452 214.681C262.48 210.156 255.819 211.567 255.785 215.571Z" fill="#DEBE16"/>
<line y1="-0.5" x2="14.4757" y2="-0.5" transform="matrix(-0.999233 -0.0491554 -0.372295 -0.927077 265.57 214.163)" stroke="#DEBE16"/>
<path d="M241.982 221.043C241.174 224.966 248.246 224.991 257.225 230.182C266.203 235.373 265.455 229.34 257.527 223.177C249.599 217.015 242.79 217.121 241.982 221.043Z" fill="#DEBE16"/>
<line y1="-0.5" x2="14.4693" y2="-0.5" transform="matrix(-0.97143 -0.24015 -0.186003 -0.981051 251.856 221.54)" stroke="#DEBE16"/>
<path d="M226.322 225.156C224.681 228.811 231.581 230.361 239.219 237.364C246.857 244.368 247.437 238.316 241.035 230.59C234.634 222.865 227.963 221.5 226.322 225.156Z" fill="#DEBE16"/>
<line y1="-0.5" x2="14.4597" y2="-0.5" transform="matrix(-0.896853 -0.444173 0.0314748 -0.997724 235.854 227.77)" stroke="#DEBE16"/>
<path d="M212.605 226.035C209.558 228.647 215.139 232.975 219.058 242.551C222.978 252.128 226.088 246.898 223.596 237.192C221.104 227.487 215.651 223.423 212.605 226.035Z" fill="#DEBE16"/>
<line y1="-0.5" x2="14.4398" y2="-0.5" transform="matrix(-0.622619 -0.783345 0.454602 -0.889131 220.114 232.443)" stroke="#DEBE16"/>
<path d="M196.293 226.035C193.246 228.647 198.827 232.975 202.747 242.551C206.666 252.127 209.777 246.898 207.285 237.192C204.793 227.486 199.34 223.423 196.293 226.035Z" fill="#DEBE16"/>
<line y1="-0.5" x2="14.4398" y2="-0.5" transform="matrix(-0.622619 -0.783345 0.454602 -0.889131 203.802 232.442)" stroke="#DEBE16"/>
<path d="M292.257 182.908C293.959 186.536 299.649 182.351 309.962 181.176C320.276 180.001 316.061 175.606 306.008 175.376C295.955 175.147 290.555 179.281 292.257 182.908Z" fill="#DEBE16"/>
<line y1="-0.5" x2="14.4781" y2="-0.5" transform="matrix(-0.922713 0.384788 -0.737145 -0.676606 300.477 177.436)" stroke="#DEBE16"/>
<path d="M307.985 147.986C310.26 151.287 315.185 146.23 325.166 143.388C335.147 140.547 330.267 136.898 320.312 138.312C310.357 139.726 305.71 144.685 307.985 147.986Z" fill="#DEBE16"/>
<line y1="-0.5" x2="14.4743" y2="-0.5" transform="matrix(-0.84723 0.530269 -0.838347 -0.54717 315.194 141.245)" stroke="#DEBE16"/>
<path d="M235.982 24.0025C238.977 21.633 233.803 17.0515 230.394 7.43388C226.985 -2.18372 223.839 2.74491 225.883 12.401C227.926 22.0572 232.986 26.3719 235.982 24.0025Z" fill="#DEBE16"/>
<line y1="-0.5" x2="14.2128" y2="-0.5" transform="matrix(0.575924 0.818195 -0.481872 0.874778 229.041 17.2664)" stroke="#DEBE16"/>
<path d="M189.043 219.803C189.043 219.803 181.736 218.847 174.771 219.803C167.193 220.842 164.066 223.759 155.911 233.006C147.755 242.253 142.149 242.655 142.149 242.655" stroke="#DEBE16" stroke-width="3"/>
<defs>
<filter id="filter0_d_22_1561" x="71.342" y="78.2859" width="185.538" height="28.2861" filterUnits="userSpaceOnUse" color-interpolation-filters="sRGB">
<feFlood flood-opacity="0" result="BackgroundImageFix"/>
<feColorMatrix in="SourceAlpha" type="matrix" values="0 0 0 0 0 0 0 0 0 0 0 0 0 0 0 0 0 0 127 0" result="hardAlpha"/>
<feOffset dy="4"/>
<feGaussianBlur stdDeviation="2"/>
<feComposite in2="hardAlpha" operator="out"/>
<feColorMatrix type="matrix" values="0 0 0 0 0 0 0 0 0 0 0 0 0 0 0 0 0 0 0.25 0"/>
<feBlend mode="normal" in2="BackgroundImageFix" result="effect1_dropShadow_22_1561"/>
<feBlend mode="normal" in="SourceGraphic" in2="effect1_dropShadow_22_1561" result="shape"/>
</filter>
<filter id="filter1_d_22_1561" x="99.8303" y="127.578" width="137.629" height="32.48" filterUnits="userSpaceOnUse" color-interpolation-filters="sRGB">
<feFlood flood-opacity="0" result="BackgroundImageFix"/>
<feColorMatrix in="SourceAlpha" type="matrix" values="0 0 0 0 0 0 0 0 0 0 0 0 0 0 0 0 0 0 127 0" result="hardAlpha"/>
<feOffset dy="4"/>
<feGaussianBlur stdDeviation="2"/>
<feComposite in2="hardAlpha" operator="out"/>
<feColorMatrix type="matrix" values="0 0 0 0 0 0 0 0 0 0 0 0 0 0 0 0 0 0 0.25 0"/>
<feBlend mode="normal" in2="BackgroundImageFix" result="effect1_dropShadow_22_1561"/>
<feBlend mode="normal" in="SourceGraphic" in2="effect1_dropShadow_22_1561" result="shape"/>
</filter>
</defs>
</svg>
