<svg width="336" height="252" viewBox="0 0 336 252" fill="none" xmlns="http://www.w3.org/2000/svg">
<g filter="url(#filter0_d_22_1261)">
<path d="M86.502 83.296C87.342 83.644 87.996 84.136 88.464 84.772C88.944 85.396 89.184 86.092 89.184 86.86C89.184 87.616 88.842 88.33 88.158 89.002C87.474 89.662 86.622 90.19 85.602 90.586C84.594 90.982 83.628 91.18 82.704 91.18C82.104 91.18 81.516 91.15 80.94 91.09C79.98 91.03 79.236 91 78.708 91H75.702V89.722L77.394 88.39V78.778L75.342 78.292L76.062 76.852H78.69C79.782 76.852 80.856 76.816 81.912 76.744C82.728 76.696 83.328 76.672 83.712 76.672C84.66 76.672 85.494 76.828 86.214 77.14C86.934 77.452 87.486 77.878 87.87 78.418C88.266 78.946 88.464 79.54 88.464 80.2C88.464 80.776 88.284 81.334 87.924 81.874C87.576 82.402 87.102 82.882 86.502 83.314V83.296ZM84.432 81.208C84.432 80.392 84.252 79.744 83.892 79.264C83.544 78.772 83.022 78.526 82.326 78.526C81.954 78.526 81.606 78.58 81.282 78.688V83.17H82.956C83.94 83.17 84.432 82.516 84.432 81.208ZM83.208 89.128C83.808 89.128 84.276 88.972 84.612 88.66C84.96 88.348 85.134 87.91 85.134 87.346C85.134 86.59 84.936 85.972 84.54 85.492C84.144 85 83.562 84.73 82.794 84.682H82.452H81.282V88.804C81.858 89.008 82.506 89.11 83.226 89.11L83.208 89.128ZM96.3989 81.046C97.7309 81.046 98.7629 81.544 99.4949 82.54C100.227 83.536 100.575 84.952 100.539 86.788H94.1849C94.3289 87.34 94.5689 87.778 94.9049 88.102C95.2409 88.414 95.6669 88.57 96.1829 88.57C97.0349 88.57 98.3069 88.258 99.9989 87.634L100.539 88.858L98.0729 90.838C97.2569 91.066 96.2789 91.18 95.1389 91.18C94.2029 91.18 93.3629 90.976 92.6189 90.568C91.8869 90.148 91.3109 89.578 90.8909 88.858C90.4829 88.126 90.2789 87.316 90.2789 86.428C90.2789 85.468 90.5969 84.574 91.2329 83.746C91.8689 82.918 92.6669 82.264 93.6269 81.784C94.5869 81.292 95.5169 81.046 96.4169 81.046H96.3989ZM95.4449 83.458C95.0009 83.458 94.6649 83.614 94.4369 83.926C94.2089 84.226 94.0829 84.694 94.0589 85.33H97.0289C96.9689 84.694 96.8129 84.226 96.5609 83.926C96.3089 83.614 95.9309 83.458 95.4269 83.458H95.4449ZM106.981 88.516C106.981 88.348 106.843 88.168 106.567 87.976C106.303 87.772 105.877 87.496 105.289 87.148C104.341 86.596 103.603 86.098 103.075 85.654C102.547 85.21 102.283 84.718 102.283 84.178C102.283 83.746 102.505 83.284 102.949 82.792C103.393 82.3 103.933 81.886 104.569 81.55C105.217 81.214 105.811 81.046 106.351 81.046C107.011 81.046 107.779 81.118 108.655 81.262C109.531 81.394 110.167 81.544 110.563 81.712V84.844H109.159C108.871 84.34 108.517 83.944 108.097 83.656C107.677 83.356 107.251 83.206 106.819 83.206C106.651 83.206 106.519 83.254 106.423 83.35C106.339 83.446 106.297 83.566 106.297 83.71C106.297 83.902 106.435 84.106 106.711 84.322C106.999 84.526 107.449 84.808 108.061 85.168C108.985 85.696 109.705 86.176 110.221 86.608C110.737 87.04 110.995 87.52 110.995 88.048C110.995 88.492 110.767 88.96 110.311 89.452C109.855 89.932 109.297 90.34 108.637 90.676C107.977 91.012 107.371 91.18 106.819 91.18C106.123 91.18 105.295 91.114 104.335 90.982C103.375 90.838 102.685 90.682 102.265 90.514V87.202H103.669C104.005 87.766 104.419 88.21 104.911 88.534C105.403 88.858 105.889 89.02 106.369 89.02C106.549 89.02 106.693 88.972 106.801 88.876C106.921 88.78 106.981 88.66 106.981 88.516ZM118.782 91.036C118.29 91.132 117.714 91.18 117.054 91.18C115.806 91.18 114.894 90.922 114.318 90.406C113.742 89.878 113.454 89.068 113.454 87.976V83.224H111.51V82.126L115.65 77.788H117.054V81.766H120.294V83.224H117.054V87.652C117.054 88.384 117.522 88.75 118.458 88.75C118.698 88.75 118.932 88.726 119.16 88.678C119.4 88.618 119.7 88.516 120.06 88.372L120.6 89.596L118.782 91.036ZM140.597 81.748L139.337 82.288L136.727 78.562H135.377V89.074L137.447 89.56L136.727 91H129.815V89.722L131.507 88.39V78.562H130.211L127.601 82.288L126.341 81.748V76.528L127.835 76.852H139.103L140.597 76.528V81.748ZM151.667 91H147.167V89.434L145.133 91.036C144.893 91.132 144.593 91.18 144.233 91.18C143.009 91.18 142.121 90.886 141.569 90.298C141.029 89.698 140.759 88.978 140.759 88.138C140.759 87.658 140.897 87.19 141.173 86.734C141.449 86.266 141.851 85.834 142.379 85.438H147.167C147.131 84.91 146.951 84.514 146.627 84.25C146.303 83.974 145.895 83.836 145.403 83.836C144.575 83.836 143.363 84.088 141.767 84.592L141.227 83.368L143.693 81.388C144.353 81.16 145.145 81.046 146.069 81.046C147.557 81.046 148.715 81.376 149.543 82.036C150.371 82.684 150.785 83.638 150.785 84.898V88.93L152.387 89.56L151.667 91ZM145.331 88.21C145.859 88.21 146.471 88.006 147.167 87.598V86.896H144.431C144.371 87.004 144.329 87.1 144.305 87.184C144.281 87.256 144.269 87.352 144.269 87.472C144.269 87.7 144.359 87.88 144.539 88.012C144.731 88.144 145.001 88.21 145.349 88.21H145.331ZM159.774 91.036C159.282 91.132 158.706 91.18 158.046 91.18C156.798 91.18 155.886 90.922 155.31 90.406C154.734 89.878 154.446 89.068 154.446 87.976V83.224H152.502V82.126L156.642 77.788H158.046V81.766H161.286V83.224H158.046V87.652C158.046 88.384 158.514 88.75 159.45 88.75C159.69 88.75 159.924 88.726 160.152 88.678C160.392 88.618 160.692 88.516 161.052 88.372L161.592 89.596L159.774 91.036ZM169.038 91.036C168.546 91.132 167.97 91.18 167.31 91.18C166.062 91.18 165.15 90.922 164.574 90.406C163.998 89.878 163.71 89.068 163.71 87.976V83.224H161.766V82.126L165.906 77.788H167.31V81.766H170.55V83.224H167.31V87.652C167.31 88.384 167.778 88.75 168.714 88.75C168.954 88.75 169.188 88.726 169.416 88.678C169.656 88.618 169.956 88.516 170.316 88.372L170.856 89.596L169.038 91.036ZM177.716 81.046C178.652 81.046 179.486 81.256 180.218 81.676C180.962 82.084 181.538 82.654 181.946 83.386C182.366 84.106 182.576 84.91 182.576 85.798C182.576 86.758 182.258 87.652 181.622 88.48C180.986 89.308 180.188 89.968 179.228 90.46C178.268 90.94 177.338 91.18 176.438 91.18C175.502 91.18 174.662 90.976 173.918 90.568C173.186 90.148 172.61 89.578 172.19 88.858C171.782 88.126 171.578 87.316 171.578 86.428C171.578 85.468 171.896 84.574 172.532 83.746C173.168 82.918 173.966 82.264 174.926 81.784C175.886 81.292 176.816 81.046 177.716 81.046ZM176.672 83.458C176.288 83.458 175.988 83.638 175.772 83.998C175.568 84.346 175.466 84.868 175.466 85.564C175.466 86.5 175.64 87.268 175.988 87.868C176.348 88.468 176.846 88.768 177.482 88.768C177.866 88.768 178.16 88.588 178.364 88.228C178.58 87.868 178.688 87.34 178.688 86.644C178.688 85.708 178.508 84.946 178.148 84.358C177.8 83.758 177.308 83.458 176.672 83.458ZM190.513 81.046C191.449 81.046 192.283 81.256 193.015 81.676C193.759 82.084 194.335 82.654 194.743 83.386C195.163 84.106 195.373 84.91 195.373 85.798C195.373 86.758 195.055 87.652 194.419 88.48C193.783 89.308 192.985 89.968 192.025 90.46C191.065 90.94 190.135 91.18 189.235 91.18C188.299 91.18 187.459 90.976 186.715 90.568C185.983 90.148 185.407 89.578 184.987 88.858C184.579 88.126 184.375 87.316 184.375 86.428C184.375 85.468 184.693 84.574 185.329 83.746C185.965 82.918 186.763 82.264 187.723 81.784C188.683 81.292 189.613 81.046 190.513 81.046ZM189.469 83.458C189.085 83.458 188.785 83.638 188.569 83.998C188.365 84.346 188.263 84.868 188.263 85.564C188.263 86.5 188.437 87.268 188.785 87.868C189.145 88.468 189.643 88.768 190.279 88.768C190.663 88.768 190.957 88.588 191.161 88.228C191.377 87.868 191.485 87.34 191.485 86.644C191.485 85.708 191.305 84.946 190.945 84.358C190.597 83.758 190.105 83.458 189.469 83.458ZM206.825 88.516C206.825 88.348 206.687 88.168 206.411 87.976C206.147 87.772 205.721 87.496 205.133 87.148C204.185 86.596 203.447 86.098 202.919 85.654C202.391 85.21 202.127 84.718 202.127 84.178C202.127 83.746 202.349 83.284 202.793 82.792C203.237 82.3 203.777 81.886 204.413 81.55C205.061 81.214 205.655 81.046 206.195 81.046C206.855 81.046 207.623 81.118 208.499 81.262C209.375 81.394 210.011 81.544 210.407 81.712V84.844H209.003C208.715 84.34 208.361 83.944 207.941 83.656C207.521 83.356 207.095 83.206 206.663 83.206C206.495 83.206 206.363 83.254 206.267 83.35C206.183 83.446 206.141 83.566 206.141 83.71C206.141 83.902 206.279 84.106 206.555 84.322C206.843 84.526 207.293 84.808 207.905 85.168C208.829 85.696 209.549 86.176 210.065 86.608C210.581 87.04 210.839 87.52 210.839 88.048C210.839 88.492 210.611 88.96 210.155 89.452C209.699 89.932 209.141 90.34 208.481 90.676C207.821 91.012 207.215 91.18 206.663 91.18C205.967 91.18 205.139 91.114 204.179 90.982C203.219 90.838 202.529 90.682 202.109 90.514V87.202H203.513C203.849 87.766 204.263 88.21 204.755 88.534C205.247 88.858 205.733 89.02 206.213 89.02C206.393 89.02 206.537 88.972 206.645 88.876C206.765 88.78 206.825 88.66 206.825 88.516ZM223.846 90.982H219.346V85.42C219.346 84.904 219.268 84.538 219.112 84.322C218.968 84.106 218.71 83.998 218.338 83.998C217.822 83.998 217.318 84.124 216.826 84.376V89.056L218.446 89.56L217.726 91H211.624V89.722L213.226 88.318V79.21L211.624 78.166V76.888L215.422 75.286H216.826V82.594L218.572 81.19C218.896 81.094 219.286 81.046 219.742 81.046C220.726 81.046 221.506 81.298 222.082 81.802C222.658 82.294 222.946 82.966 222.946 83.818V89.056L224.566 89.542L223.846 90.982ZM231.522 81.046C232.458 81.046 233.292 81.256 234.024 81.676C234.768 82.084 235.344 82.654 235.752 83.386C236.172 84.106 236.382 84.91 236.382 85.798C236.382 86.758 236.064 87.652 235.428 88.48C234.792 89.308 233.994 89.968 233.034 90.46C232.074 90.94 231.144 91.18 230.244 91.18C229.308 91.18 228.468 90.976 227.724 90.568C226.992 90.148 226.416 89.578 225.996 88.858C225.588 88.126 225.384 87.316 225.384 86.428C225.384 85.468 225.702 84.574 226.338 83.746C226.974 82.918 227.772 82.264 228.732 81.784C229.692 81.292 230.622 81.046 231.522 81.046ZM230.478 83.458C230.094 83.458 229.794 83.638 229.578 83.998C229.374 84.346 229.272 84.868 229.272 85.564C229.272 86.5 229.446 87.268 229.794 87.868C230.154 88.468 230.652 88.768 231.288 88.768C231.672 88.768 231.966 88.588 232.17 88.228C232.386 87.868 232.494 87.34 232.494 86.644C232.494 85.708 232.314 84.946 231.954 84.358C231.606 83.758 231.114 83.458 230.478 83.458ZM244.175 91.18C243.791 91.18 243.437 91.09 243.113 90.91V93.43L245.993 94.132L245.273 95.572H237.911V94.294L239.513 92.89V84.808L237.911 83.764V82.486L242.069 80.884L242.825 82.846L244.877 81.19C245.261 81.094 245.699 81.046 246.191 81.046C246.983 81.046 247.691 81.256 248.315 81.676C248.951 82.084 249.443 82.654 249.791 83.386C250.151 84.106 250.331 84.91 250.331 85.798C250.331 86.758 250.013 87.652 249.377 88.48C248.741 89.308 247.943 89.968 246.983 90.46C246.023 90.94 245.093 91.18 244.193 91.18H244.175ZM244.931 83.998C244.283 83.998 243.671 84.13 243.095 84.394V87.004C243.095 87.508 243.281 87.928 243.653 88.264C244.025 88.6 244.547 88.768 245.219 88.768C246.095 88.768 246.533 88.06 246.533 86.644C246.533 85.864 246.401 85.228 246.137 84.736C245.873 84.244 245.477 83.998 244.949 83.998H244.931Z" fill="#5F22E1"/>
</g>
<g filter="url(#filter1_d_22_1261)">
<path d="M135.04 155.105L131.24 154.385H110.88V151.545C114.213 149.038 116.733 147.052 118.44 145.585C120.173 144.092 121.387 142.878 122.08 141.945C122.773 140.985 123.12 140.105 123.12 139.305C123.12 138.478 122.8 137.798 122.16 137.265C121.547 136.732 120.76 136.465 119.8 136.465C117.987 136.465 115.293 137.158 111.72 138.545L110.52 135.825L116 131.425C117.333 130.918 118.973 130.665 120.92 130.665C123.16 130.665 125.12 130.932 126.8 131.465C128.507 131.972 129.827 132.705 130.76 133.665C131.693 134.625 132.16 135.745 132.16 137.025C132.16 137.985 131.453 139.265 130.04 140.865C128.627 142.465 126.493 144.278 123.64 146.305H130.64L132.2 142.665L135.04 143.505V155.105ZM160.057 130.625C162.484 130.625 164.644 131.118 166.537 132.105C168.457 133.092 169.937 134.452 170.977 136.185C172.044 137.918 172.577 139.852 172.577 141.985C172.577 144.278 171.764 146.412 170.137 148.385C168.537 150.332 166.537 151.878 164.137 153.025C161.737 154.172 159.431 154.745 157.217 154.745C154.791 154.745 152.631 154.252 150.737 153.265C148.844 152.278 147.364 150.918 146.297 149.185C145.231 147.452 144.697 145.518 144.697 143.385C144.697 141.092 145.497 138.972 147.097 137.025C148.724 135.052 150.737 133.492 153.137 132.345C155.537 131.198 157.844 130.625 160.057 130.625ZM157.737 135.585C154.804 135.585 153.337 137.545 153.337 141.465C153.337 143.865 153.871 145.852 154.937 147.425C156.004 148.998 157.537 149.785 159.537 149.785C162.471 149.785 163.937 147.812 163.937 143.865C163.937 141.465 163.404 139.492 162.337 137.945C161.271 136.372 159.737 135.585 157.737 135.585ZM206.532 155.105L202.732 154.385H182.372V151.545C185.706 149.038 188.226 147.052 189.932 145.585C191.666 144.092 192.879 142.878 193.572 141.945C194.266 140.985 194.612 140.105 194.612 139.305C194.612 138.478 194.292 137.798 193.652 137.265C193.039 136.732 192.252 136.465 191.292 136.465C189.479 136.465 186.786 137.158 183.212 138.545L182.012 135.825L187.492 131.425C188.826 130.918 190.466 130.665 192.412 130.665C194.652 130.665 196.612 130.932 198.292 131.465C199.999 131.972 201.319 132.705 202.252 133.665C203.186 134.625 203.652 135.745 203.652 137.025C203.652 137.985 202.946 139.265 201.532 140.865C200.119 142.465 197.986 144.278 195.132 146.305H202.132L203.692 142.665L206.532 143.505V155.105ZM226.829 144.185C229.763 145.038 231.923 145.998 233.309 147.065C234.696 148.132 235.389 149.425 235.389 150.945C235.389 153.798 233.843 156.332 230.749 158.545C227.656 160.758 222.709 162.865 215.909 164.865L214.909 161.345C218.083 160.252 220.483 159.292 222.109 158.465C223.763 157.638 224.923 156.798 225.589 155.945C226.256 155.092 226.589 154.052 226.589 152.825C226.589 150.452 224.803 148.612 221.229 147.305V144.705C222.536 143.905 223.469 143.078 224.029 142.225C224.616 141.372 224.909 140.385 224.909 139.265C224.909 138.278 224.643 137.478 224.109 136.865C223.576 136.252 222.883 135.945 222.029 135.945C220.963 135.945 218.936 136.638 215.949 138.025L214.749 135.305L220.229 130.905C221.136 130.692 221.963 130.585 222.709 130.585C224.709 130.585 226.549 130.878 228.229 131.465C229.909 132.025 231.243 132.798 232.229 133.785C233.216 134.745 233.709 135.812 233.709 136.985C233.576 138.318 232.936 139.572 231.789 140.745C230.643 141.918 229.003 143.078 226.869 144.225L226.829 144.185Z" fill="black"/>
</g>
<path d="M114.599 24.6126C-17.9276 49.4957 12.1457 244.499 149.26 220.631" stroke="#DEBE16" stroke-width="3"/>
<path d="M109.95 23.6269C109.957 27.1697 114.598 29.7956 119.374 25.3063C124.15 20.817 122.857 20.9536 118.137 19.1011C113.418 17.2486 109.943 20.0842 109.95 23.6269Z" fill="#DEBE16"/>
<path d="M103.716 31.3798C103.079 35.1674 110.081 35.1424 119.183 40.0838C128.286 45.0252 127.296 39.2138 119.193 33.3281C111.09 27.4424 104.354 27.5923 103.716 31.3798Z" fill="#DEBE16"/>
<line y1="-0.5" x2="14.42" y2="-0.5" transform="matrix(-0.97489 -0.225476 -0.231086 -0.971461 113.511 31.7893)" stroke="#DEBE16"/>
<path d="M92.6523 35.7708C91.9003 39.4627 98.7955 39.6999 107.596 44.8879C116.397 50.0758 115.612 44.3377 107.827 38.2608C100.041 32.1839 93.4043 32.079 92.6523 35.7708Z" fill="#DEBE16"/>
<line y1="-0.5" x2="14.2195" y2="-0.5" transform="matrix(-0.965942 -0.261279 -0.199116 -0.978433 102.283 36.5389)" stroke="#DEBE16"/>
<path d="M82.6325 40.3426C81.4597 44.1992 88.4483 44.7694 96.8284 50.6465C105.208 56.5236 105.044 50.4387 97.7952 43.6717C90.5459 36.9047 83.8053 36.486 82.6325 40.3426Z" fill="#DEBE16"/>
<line y1="-0.5" x2="14.2961" y2="-0.5" transform="matrix(-0.948715 -0.318535 -0.0902923 -0.994285 92.3455 41.5992)" stroke="#DEBE16"/>
<path d="M71.348 47.3733C70.569 51.3276 77.5797 51.1972 86.5088 56.2082C95.4378 61.2191 94.6625 55.1813 86.7692 49.172C78.8758 43.1627 72.127 43.4191 71.348 47.3733Z" fill="#DEBE16"/>
<line y1="-0.5" x2="14.3002" y2="-0.5" transform="matrix(-0.9757 -0.222162 -0.189855 -0.980351 81.1384 47.6542)" stroke="#DEBE16"/>
<path d="M63.0647 55.3362C62.677 59.3474 69.6414 58.5355 79.019 62.6538C88.3965 66.7721 87.0331 60.8385 78.5884 55.6259C70.1438 50.4133 63.4524 51.325 63.0647 55.3362Z" fill="#DEBE16"/>
<line y1="-0.5" x2="14.3036" y2="-0.5" transform="matrix(-0.992577 -0.126141 -0.285064 -0.957262 72.8362 54.663)" stroke="#DEBE16"/>
<path d="M53.7887 62.3129C53.6316 66.3396 60.5381 65.1328 70.1365 68.7106C79.7349 72.2884 78.0335 66.4422 69.3037 61.7187C60.574 56.9952 53.9457 58.2863 53.7887 62.3129Z" fill="#DEBE16"/>
<line y1="-0.5" x2="14.3053" y2="-0.5" transform="matrix(-0.998072 -0.0694371 -0.339499 -0.939508 63.5054 61.0848)" stroke="#DEBE16"/>
<path d="M49.7451 71.4992C49.5145 75.5223 56.4419 74.4411 65.9733 78.1925C75.5046 81.944 73.9104 76.0678 65.2685 71.1867C56.6266 66.3055 49.9758 67.476 49.7451 71.4992Z" fill="#DEBE16"/>
<line y1="-0.5" x2="14.3047" y2="-0.5" transform="matrix(-0.996672 -0.0875463 -0.322257 -0.945505 59.4829 70.4478)" stroke="#DEBE16"/>
<path d="M44.3522 80.2431C44.6599 84.2611 51.3818 82.2727 61.3289 84.7296C71.2759 87.1865 68.9124 81.5733 59.6963 77.879C50.4801 74.1848 44.0444 76.2251 44.3522 80.2431Z" fill="#DEBE16"/>
<line y1="-0.5" x2="14.3078" y2="-0.5" transform="matrix(-0.999296 0.0451163 -0.445493 -0.894538 53.8633 77.9126)" stroke="#DEBE16"/>
<path d="M40.4015 91.5872C40.4996 95.6158 47.316 93.9774 57.1218 96.945C66.9275 99.9126 64.8594 94.1849 55.848 90.0193C46.8367 85.8537 40.3034 87.5587 40.4015 91.5872Z" fill="#DEBE16"/>
<line y1="-0.5" x2="14.3068" y2="-0.5" transform="matrix(-1.00037 -0.00658768 -0.398309 -0.916336 50.0212 89.7512)" stroke="#DEBE16"/>
<path d="M36.3743 104.329C36.9678 108.315 43.5309 105.856 53.6281 107.603C63.7252 109.349 60.9673 103.917 51.511 100.885C42.0547 97.8525 35.7807 100.343 36.3743 104.329Z" fill="#DEBE16"/>
<line y1="-0.5" x2="14.3089" y2="-0.5" transform="matrix(-0.993481 0.115735 -0.508178 -0.860758 45.6951 101.331)" stroke="#DEBE16"/>
<path d="M35.6246 117.078C36.7007 120.963 42.9146 117.726 53.15 118.235C63.3855 118.745 59.9846 113.688 50.2282 111.824C40.4717 109.961 34.5486 113.194 35.6246 117.078Z" fill="#DEBE16"/>
<line y1="-0.5" x2="14.3095" y2="-0.5" transform="matrix(-0.971916 0.235307 -0.609545 -0.792764 44.51 112.972)" stroke="#DEBE16"/>
<path d="M33.5858 127.235C34.6618 131.119 40.8758 127.883 51.1112 128.392C61.3466 128.902 57.9458 123.845 48.1894 121.981C38.4329 120.118 32.5098 123.35 33.5858 127.235Z" fill="#DEBE16"/>
<line y1="-0.5" x2="14.3095" y2="-0.5" transform="matrix(-0.971916 0.235307 -0.609545 -0.792764 42.4709 123.129)" stroke="#DEBE16"/>
<path d="M34.6054 138.407C35.6814 142.292 41.8953 139.055 52.1307 139.564C62.3662 140.074 58.9653 135.017 49.2089 133.153C39.4524 131.29 33.5293 134.523 34.6054 138.407Z" fill="#DEBE16"/>
<line y1="-0.5" x2="14.3095" y2="-0.5" transform="matrix(-0.971916 0.235307 -0.609545 -0.792764 43.4905 134.301)" stroke="#DEBE16"/>
<path d="M37.2131 149.483C38.5968 153.27 44.5317 149.55 54.7753 149.244C65.0189 148.938 61.2239 144.168 51.3493 143.086C41.4747 142.004 35.8294 145.697 37.2131 149.483Z" fill="#DEBE16"/>
<line y1="-0.5" x2="14.3092" y2="-0.5" transform="matrix(-0.949994 0.311823 -0.671088 -0.741778 45.7412 144.684)" stroke="#DEBE16"/>
<path d="M39.2647 161.307C41.2384 164.825 46.4998 160.207 56.5625 158.273C66.6251 156.339 62.1132 152.234 52.192 152.739C42.2708 153.245 37.291 157.79 39.2647 161.307Z" fill="#DEBE16"/>
<line y1="-0.5" x2="14.3068" y2="-0.5" transform="matrix(-0.887865 0.459244 -0.78148 -0.625279 46.9128 155.211)" stroke="#DEBE16"/>
<path d="M45.423 171.62C47.4216 175.123 52.6501 170.468 62.6989 168.464C72.7476 166.459 68.2068 162.387 58.2894 162.961C48.372 163.536 43.4245 168.116 45.423 171.62Z" fill="#DEBE16"/>
<line y1="-0.5" x2="14.3066" y2="-0.5" transform="matrix(-0.884605 0.465471 -0.785881 -0.619776 53.0276 165.47)" stroke="#DEBE16"/>
<path d="M52.1177 182.989C54.4732 186.265 59.1841 181.091 68.9671 178.049C78.7501 175.008 73.8064 171.431 64.0039 173.037C54.2013 174.643 49.7621 179.713 52.1177 182.989Z" fill="#DEBE16"/>
<line y1="-0.5" x2="14.3038" y2="-0.5" transform="matrix(-0.831016 0.555257 -0.846619 -0.534402 59.0347 176.081)" stroke="#DEBE16"/>
<path d="M61.1685 193.95C64.1445 196.679 67.6985 190.657 76.6545 185.694C85.6105 180.731 80.039 178.233 70.7704 181.794C61.5017 185.356 58.1925 191.221 61.1685 193.95Z" fill="#DEBE16"/>
<line y1="-0.5" x2="14.2961" y2="-0.5" transform="matrix(-0.700426 0.712657 -0.937989 -0.351311 66.5276 185.783)" stroke="#DEBE16"/>
<path d="M73.1226 203.112C76.9354 204.457 77.8297 197.528 84.1092 189.459C90.3888 181.391 84.2801 181.273 77.1604 188.175C70.0407 195.078 69.3099 201.767 73.1226 203.112Z" fill="#DEBE16"/>
<line y1="-0.5" x2="14.2775" y2="-0.5" transform="matrix(-0.363647 0.930683 -1.00072 0.0439529 74.8311 193.503)" stroke="#DEBE16"/>
<path d="M87.8278 211.557C91.7584 212.508 91.9386 205.524 97.3593 196.859C102.78 188.195 96.6912 188.698 90.3153 196.288C83.9394 203.878 83.8972 210.606 87.8278 211.557Z" fill="#DEBE16"/>
<line y1="-0.5" x2="14.2731" y2="-0.5" transform="matrix(-0.266549 0.963076 -0.990911 0.145401 88.5437 201.825)" stroke="#DEBE16"/>
<path d="M99.3166 215.539C103.352 215.811 102.339 208.898 106.204 199.442C110.069 189.986 104.154 191.513 99.1651 200.071C94.1757 208.63 95.2811 215.267 99.3166 215.539Z" fill="#DEBE16"/>
<line y1="-0.5" x2="14.2671" y2="-0.5" transform="matrix(-0.098537 0.994605 -0.951608 0.310919 98.3628 205.828)" stroke="#DEBE16"/>
<path d="M113.982 218.311C117.993 217.787 115.637 211.208 117.562 201.18C119.488 191.151 113.989 193.806 110.784 203.174C107.579 212.542 109.972 218.834 113.982 218.311Z" fill="#DEBE16"/>
<line y1="-0.5" x2="14.2629" y2="-0.5" transform="matrix(0.0994922 0.994809 -0.8717 0.491027 111.133 208.975)" stroke="#DEBE16"/>
<path d="M125.465 219.544C129.503 219.314 127.635 212.58 130.289 202.719C132.943 192.857 127.265 195.105 123.383 204.215C119.501 213.325 121.427 219.775 125.465 219.544Z" fill="#DEBE16"/>
<line y1="-0.5" x2="14.2641" y2="-0.5" transform="matrix(0.026436 0.999305 -0.905331 0.426425 123.306 210.026)" stroke="#DEBE16"/>
<path d="M141.936 217.642C145.933 217.026 143.424 210.503 145.113 200.432C146.803 190.362 141.368 193.144 138.384 202.584C135.399 212.024 137.939 218.259 141.936 217.642Z" fill="#DEBE16"/>
<line y1="-0.5" x2="14.2626" y2="-0.5" transform="matrix(0.122813 0.992238 -0.859934 0.511194 138.868 208.375)" stroke="#DEBE16"/>
<path d="M88.5791 27.6171C85.1058 25.4425 90.0713 20.475 92.5565 10.5656C95.0417 0.656117 98.9806 5.39408 97.9549 15.2473C96.9293 25.1006 92.0523 29.7918 88.5791 27.6171Z" fill="#DEBE16"/>
<line y1="-0.5" x2="14.2829" y2="-0.5" transform="matrix(-0.513477 0.858667 0.588916 0.806948 95.1704 20.36)" stroke="#DEBE16"/>
<path d="M77.9255 33.2311C74.3447 31.4123 78.738 25.8906 80.2695 15.6619C81.8011 5.43313 86.0662 9.78033 85.9522 19.7978C85.8383 29.8153 81.5064 35.0499 77.9255 33.2311Z" fill="#DEBE16"/>
<line y1="-0.5" x2="14.433" y2="-0.5" transform="matrix(-0.4189 0.90839 0.652938 0.756482 83.6973 25.2344)" stroke="#DEBE16"/>
<path d="M68.1279 38.2718C64.3322 36.9546 67.9316 30.8894 68.0538 20.5482C68.1761 10.207 72.9945 13.9364 74.2479 23.8765C75.5013 33.8165 71.9236 39.589 68.1279 38.2718Z" fill="#DEBE16"/>
<line y1="-0.5" x2="14.4313" y2="-0.5" transform="matrix(-0.291151 0.956788 0.750036 0.661051 72.7556 29.5676)" stroke="#DEBE16"/>
<path d="M57.6677 46.2347C53.7936 45.1677 56.9871 38.8808 56.4299 28.5538C55.8728 18.2268 60.9259 21.6342 62.8293 31.4713C64.7328 41.3083 61.5418 47.3016 57.6677 46.2347Z" fill="#DEBE16"/>
<line y1="-0.5" x2="14.4311" y2="-0.5" transform="matrix(-0.227701 0.973728 0.791836 0.610746 61.7139 37.2476)" stroke="#DEBE16"/>
<path d="M48.448 56.2195C44.451 55.7977 46.5703 49.0754 44.3266 38.9779C42.083 28.8805 47.627 31.4194 51.1185 40.8142C54.61 50.2091 52.445 56.6414 48.448 56.2195Z" fill="#DEBE16"/>
<line y1="-0.5" x2="14.4324" y2="-0.5" transform="matrix(-0.0649056 0.997619 0.881397 0.473623 50.9656 46.6946)" stroke="#DEBE16"/>
<path d="M42.2082 64.4889C38.1971 64.7462 39.1454 57.7638 35.221 48.1894C31.2965 38.615 37.1916 40.1838 42.2267 48.8556C47.2618 57.5274 46.2192 64.2316 42.2082 64.4889Z" fill="#DEBE16"/>
<line y1="-0.5" x2="14.4363" y2="-0.5" transform="matrix(0.105247 0.993924 0.949138 0.318416 43.0735 54.677)" stroke="#DEBE16"/>
<path d="M36.5857 74.4911C32.6019 75.0226 33.0658 67.9918 28.4896 58.709C23.9134 49.4263 29.9028 50.5873 35.5248 58.8935C41.1467 67.1996 40.5695 73.9595 36.5857 74.4911Z" fill="#DEBE16"/>
<line y1="-0.5" x2="14.4386" y2="-0.5" transform="matrix(0.173598 0.984204 0.968917 0.252624 36.7715 64.6436)" stroke="#DEBE16"/>
<path d="M31.8061 86.159C27.9083 87.1365 27.5702 80.0985 21.9684 71.3917C16.3667 62.6848 22.4495 63.1628 28.9793 70.7814C35.5091 78.3999 35.7039 85.1814 31.8061 86.159Z" fill="#DEBE16"/>
<line y1="-0.5" x2="14.4429" y2="-0.5" transform="matrix(0.284251 0.958002 0.991479 0.141713 30.8716 76.3538)" stroke="#DEBE16"/>
<path d="M27.8673 98.8788C24.1212 100.33 22.9103 93.388 16.2689 85.4397C9.6274 77.4915 15.7228 77.2149 23.1498 83.9687C30.5768 90.7225 31.6135 97.4277 27.8673 98.8788Z" fill="#DEBE16"/>
<line y1="-0.5" x2="14.4484" y2="-0.5" transform="matrix(0.401054 0.915182 1.00157 0.0182305 25.7205 89.2639)" stroke="#DEBE16"/>
<path d="M26.5211 115.07C23.1754 117.289 20.4957 110.769 12.2952 104.428C4.09476 98.0867 9.98816 96.5118 18.6982 101.518C27.4083 106.524 29.8668 112.851 26.5211 115.07Z" fill="#DEBE16"/>
<line y1="-0.5" x2="14.4588" y2="-0.5" transform="matrix(0.588636 0.807381 0.982303 -0.196627 22.3508 106.139)" stroke="#DEBE16"/>
<path d="M23.9295 125.339C21.2248 128.301 17.036 122.623 7.53543 118.456C-1.96515 114.289 3.36799 111.335 13.0376 114.085C22.7072 116.834 26.6342 122.376 23.9295 125.339Z" fill="#DEBE16"/>
<line y1="-0.5" x2="14.4696" y2="-0.5" transform="matrix(0.767233 0.640329 0.905162 -0.428475 17.7075 117.685)" stroke="#DEBE16"/>
<path d="M24.7995 135.799C22.5242 139.1 17.5995 134.043 7.61833 131.201C-2.36279 128.36 2.51768 124.711 12.4727 126.125C22.4277 127.539 27.0747 132.498 24.7995 135.799Z" fill="#DEBE16"/>
<line y1="-0.5" x2="14.4743" y2="-0.5" transform="matrix(0.84723 0.530268 0.838347 -0.54717 17.5906 129.059)" stroke="#DEBE16"/>
<path d="M31.2715 160.93C29.3541 164.449 23.927 159.931 13.7029 158.142C3.47881 156.353 7.95087 152.217 17.9996 152.589C28.0483 152.961 33.1889 157.41 31.2715 160.93Z" fill="#DEBE16"/>
<line y1="-0.5" x2="14.477" y2="-0.5" transform="matrix(0.89794 0.439297 0.776558 -0.631299 23.3965 154.975)" stroke="#DEBE16"/>
<path d="M35.3492 171.086C33.4318 174.606 28.0046 170.088 17.7805 168.299C7.55644 166.509 12.0285 162.374 22.0772 162.746C32.1259 163.118 37.2666 167.567 35.3492 171.086Z" fill="#DEBE16"/>
<line y1="-0.5" x2="14.477" y2="-0.5" transform="matrix(0.89794 0.439297 0.776558 -0.631299 27.4741 165.132)" stroke="#DEBE16"/>
<path d="M52.9321 196.486C52.108 200.406 45.6085 197.628 35.2987 198.834C24.989 200.041 28.0831 194.801 37.8169 192.287C47.5508 189.773 53.7561 192.567 52.9321 196.486Z" fill="#DEBE16"/>
<line y1="-0.5" x2="14.4792" y2="-0.5" transform="matrix(0.986515 0.164329 0.562293 -0.826653 43.6741 193.031)" stroke="#DEBE16"/>
<path d="M66.185 207.658C65.3609 211.578 58.8614 208.8 48.5517 210.006C38.2419 211.212 41.336 205.973 51.0699 203.459C60.8037 200.945 67.009 203.739 66.185 207.658Z" fill="#DEBE16"/>
<line y1="-0.5" x2="14.4792" y2="-0.5" transform="matrix(0.986515 0.164329 0.562293 -0.826653 56.9268 204.203)" stroke="#DEBE16"/>
<path d="M80.0571 216.587C80.0914 220.591 73.1466 219.258 63.3326 222.629C53.5185 225.999 55.4194 220.222 64.3907 215.697C73.3621 211.172 80.0229 212.583 80.0571 216.587Z" fill="#DEBE16"/>
<line y1="-0.5" x2="14.4757" y2="-0.5" transform="matrix(0.999233 -0.0491554 0.372295 -0.927077 70.2725 215.179)" stroke="#DEBE16"/>
<path d="M93.8602 222.059C94.6682 225.981 87.5958 226.007 78.6175 231.198C69.6391 236.389 70.3871 230.355 78.3152 224.193C86.2433 218.03 93.0522 218.136 93.8602 222.059Z" fill="#DEBE16"/>
<line y1="-0.5" x2="14.4693" y2="-0.5" transform="matrix(0.971431 -0.24015 0.186003 -0.981051 83.9863 222.556)" stroke="#DEBE16"/>
<path d="M109.52 226.172C111.161 229.827 104.262 231.377 96.6236 238.38C88.9853 245.383 88.4053 239.332 94.8071 231.606C101.209 223.881 107.879 222.516 109.52 226.172Z" fill="#DEBE16"/>
<line y1="-0.5" x2="14.4597" y2="-0.5" transform="matrix(0.896853 -0.444173 -0.0314748 -0.997724 99.9883 228.785)" stroke="#DEBE16"/>
<path d="M123.237 227.051C126.284 229.663 120.703 233.991 116.784 243.567C112.864 253.144 109.754 247.914 112.246 238.208C114.738 228.502 120.191 224.439 123.237 227.051Z" fill="#DEBE16"/>
<line y1="-0.5" x2="14.4398" y2="-0.5" transform="matrix(0.622619 -0.783345 -0.454602 -0.889131 115.729 233.458)" stroke="#DEBE16"/>
<path d="M139.548 227.051C142.595 229.663 137.014 233.991 133.095 243.567C129.175 253.144 126.065 247.914 128.557 238.208C131.049 228.502 136.502 224.439 139.548 227.051Z" fill="#DEBE16"/>
<line y1="-0.5" x2="14.4398" y2="-0.5" transform="matrix(0.622619 -0.783345 -0.454602 -0.889131 132.04 233.458)" stroke="#DEBE16"/>
<path d="M43.5846 183.923C41.8826 187.551 36.1931 183.366 25.8797 182.191C15.5662 181.016 19.7811 176.621 29.8341 176.391C39.8871 176.162 45.2865 180.296 43.5846 183.923Z" fill="#DEBE16"/>
<line y1="-0.5" x2="14.4781" y2="-0.5" transform="matrix(0.922713 0.384788 0.737145 -0.676606 35.365 178.45)" stroke="#DEBE16"/>
<path d="M27.8576 149.003C25.5824 152.304 20.6576 147.247 10.6764 144.405C0.695311 141.564 5.57579 137.915 15.5308 139.329C25.4858 140.742 30.1328 145.702 27.8576 149.003Z" fill="#DEBE16"/>
<line y1="-0.5" x2="14.4743" y2="-0.5" transform="matrix(0.84723 0.530268 0.838347 -0.54717 20.6487 142.262)" stroke="#DEBE16"/>
<path d="M99.8601 25.0164C96.8649 22.6469 102.039 18.0654 105.447 8.4478C108.856 -1.1698 112.002 3.75883 109.959 13.415C107.916 23.0711 102.855 27.3858 99.8601 25.0164Z" fill="#DEBE16"/>
<line y1="-0.5" x2="14.2128" y2="-0.5" transform="matrix(-0.575924 0.818195 0.481872 0.874778 106.801 18.28)" stroke="#DEBE16"/>
<path d="M146.8 220.818C146.8 220.818 154.106 219.863 161.072 220.818C168.65 221.857 171.776 224.775 179.931 234.021C188.087 243.268 193.694 243.67 193.694 243.67" stroke="#DEBE16" stroke-width="3"/>
<path d="M220.797 23.5969C353.324 48.48 323.25 243.483 186.136 219.615" stroke="#DEBE16" stroke-width="3"/>
<path d="M225.446 22.6112C225.439 26.1539 220.798 28.7798 216.022 24.2905C211.246 19.8013 212.539 19.9379 217.259 18.0854C221.978 16.2329 225.453 19.0684 225.446 22.6112Z" fill="#DEBE16"/>
<path d="M231.68 30.3641C232.317 34.1517 225.315 34.1266 216.213 39.0681C207.11 44.0095 208.1 38.1981 216.203 32.3124C224.306 26.4267 231.042 26.5765 231.68 30.3641Z" fill="#DEBE16"/>
<line y1="-0.5" x2="14.42" y2="-0.5" transform="matrix(0.97489 -0.225476 0.231086 -0.971462 221.885 30.7742)" stroke="#DEBE16"/>
<path d="M242.743 34.7555C243.495 38.4473 236.6 38.6845 227.8 43.8725C218.999 49.0604 219.783 43.3223 227.569 37.2454C235.354 31.1685 241.991 31.0637 242.743 34.7555Z" fill="#DEBE16"/>
<line y1="-0.5" x2="14.2195" y2="-0.5" transform="matrix(0.965942 -0.261279 0.199116 -0.978434 233.113 35.5237)" stroke="#DEBE16"/>
<path d="M252.764 39.3275C253.936 43.1841 246.948 43.7543 238.568 49.6314C230.188 55.5084 230.352 49.4236 237.601 42.6566C244.85 35.8896 251.591 35.4709 252.764 39.3275Z" fill="#DEBE16"/>
<line y1="-0.5" x2="14.2961" y2="-0.5" transform="matrix(0.948715 -0.318535 0.0902922 -0.994286 243.051 40.584)" stroke="#DEBE16"/>
<path d="M264.048 46.3578C264.827 50.3121 257.816 50.1817 248.887 55.1927C239.958 60.2036 240.733 54.1658 248.627 48.1565C256.52 42.1472 263.269 42.4035 264.048 46.3578Z" fill="#DEBE16"/>
<line y1="-0.5" x2="14.3002" y2="-0.5" transform="matrix(0.9757 -0.222162 0.189855 -0.980351 254.257 46.6387)" stroke="#DEBE16"/>
<path d="M272.332 54.3208C272.719 58.332 265.755 57.5202 256.377 61.6384C247 65.7567 248.363 59.8231 256.808 54.6105C265.252 49.3979 271.944 50.3097 272.332 54.3208Z" fill="#DEBE16"/>
<line y1="-0.5" x2="14.3036" y2="-0.5" transform="matrix(0.992577 -0.126141 0.285064 -0.957262 262.56 53.6478)" stroke="#DEBE16"/>
<path d="M281.607 61.2977C281.764 65.3244 274.858 64.1175 265.26 67.6953C255.661 71.2732 257.363 65.4269 266.092 60.7034C274.822 55.9799 281.45 57.271 281.607 61.2977Z" fill="#DEBE16"/>
<line y1="-0.5" x2="14.3052" y2="-0.5" transform="matrix(0.998072 -0.0694372 0.339499 -0.939508 271.891 60.0695)" stroke="#DEBE16"/>
<path d="M285.651 70.4833C285.881 74.5065 278.954 73.4252 269.423 77.1767C259.891 80.9282 261.485 75.052 270.127 70.1708C278.769 65.2896 285.42 66.4602 285.651 70.4833Z" fill="#DEBE16"/>
<line y1="-0.5" x2="14.3047" y2="-0.5" transform="matrix(0.996672 -0.0875464 0.322257 -0.945505 275.913 69.4319)" stroke="#DEBE16"/>
<path d="M291.044 79.2277C290.736 83.2457 284.014 81.2573 274.067 83.7142C264.12 86.1711 266.483 80.5579 275.699 76.8637C284.916 73.1694 291.351 75.2097 291.044 79.2277Z" fill="#DEBE16"/>
<line y1="-0.5" x2="14.3078" y2="-0.5" transform="matrix(0.999296 0.0451163 0.445493 -0.894538 281.532 76.8965)" stroke="#DEBE16"/>
<path d="M294.994 90.5714C294.896 94.5999 288.079 92.9615 278.274 95.9291C268.468 98.8968 270.536 93.169 279.547 89.0035C288.559 84.8379 295.092 86.5428 294.994 90.5714Z" fill="#DEBE16"/>
<line y1="-0.5" x2="14.3068" y2="-0.5" transform="matrix(1.00037 -0.00658772 0.398309 -0.916337 285.375 88.7358)" stroke="#DEBE16"/>
<path d="M299.021 103.313C298.428 107.299 291.865 104.84 281.768 106.586C271.671 108.333 274.428 102.901 283.885 99.8689C293.341 96.8363 299.615 99.3271 299.021 103.313Z" fill="#DEBE16"/>
<line y1="-0.5" x2="14.3089" y2="-0.5" transform="matrix(0.993481 0.115735 0.508178 -0.860758 289.701 100.315)" stroke="#DEBE16"/>
<path d="M299.771 116.063C298.695 119.947 292.481 116.711 282.246 117.22C272.011 117.73 275.411 112.673 285.168 110.809C294.924 108.945 300.847 112.178 299.771 116.063Z" fill="#DEBE16"/>
<line y1="-0.5" x2="14.3095" y2="-0.5" transform="matrix(0.971916 0.235307 0.609545 -0.792765 290.886 111.957)" stroke="#DEBE16"/>
<path d="M301.81 126.22C300.734 130.104 294.52 126.867 284.285 127.377C274.05 127.886 277.45 122.829 287.207 120.966C296.963 119.102 302.886 122.335 301.81 126.22Z" fill="#DEBE16"/>
<line y1="-0.5" x2="14.3095" y2="-0.5" transform="matrix(0.971916 0.235307 0.609545 -0.792765 292.925 122.114)" stroke="#DEBE16"/>
<path d="M300.791 137.391C299.715 141.276 293.501 138.039 283.265 138.549C273.03 139.058 276.431 134.001 286.187 132.138C295.944 130.274 301.867 133.507 300.791 137.391Z" fill="#DEBE16"/>
<line y1="-0.5" x2="14.3095" y2="-0.5" transform="matrix(0.971916 0.235307 0.609545 -0.792765 291.905 133.285)" stroke="#DEBE16"/>
<path d="M298.183 148.468C296.799 152.254 290.864 148.534 280.621 148.228C270.377 147.922 274.172 143.152 284.047 142.07C293.921 140.988 299.567 144.681 298.183 148.468Z" fill="#DEBE16"/>
<line y1="-0.5" x2="14.3092" y2="-0.5" transform="matrix(0.949994 0.311824 0.671088 -0.741778 289.655 143.669)" stroke="#DEBE16"/>
<path d="M296.131 160.292C294.157 163.81 288.896 159.192 278.833 157.258C268.77 155.324 273.282 151.219 283.203 151.725C293.125 152.23 298.104 156.775 296.131 160.292Z" fill="#DEBE16"/>
<line y1="-0.5" x2="14.3068" y2="-0.5" transform="matrix(0.887865 0.459245 0.78148 -0.62528 288.483 154.196)" stroke="#DEBE16"/>
<path d="M289.973 170.604C287.975 174.107 282.746 169.453 272.697 167.448C262.649 165.444 267.189 161.371 277.107 161.946C287.024 162.52 291.972 167.1 289.973 170.604Z" fill="#DEBE16"/>
<line y1="-0.5" x2="14.3066" y2="-0.5" transform="matrix(0.884605 0.465472 0.78588 -0.619776 282.368 164.454)" stroke="#DEBE16"/>
<path d="M283.278 181.975C280.923 185.251 276.212 180.077 266.429 177.036C256.646 173.994 261.59 170.417 271.392 172.023C281.195 173.629 285.634 178.7 283.278 181.975Z" fill="#DEBE16"/>
<line y1="-0.5" x2="14.3038" y2="-0.5" transform="matrix(0.831016 0.555257 0.846619 -0.534402 276.362 175.066)" stroke="#DEBE16"/>
<path d="M274.227 192.934C271.251 195.664 267.697 189.641 258.741 184.678C249.785 179.715 255.356 177.217 264.625 180.778C273.894 184.34 277.203 190.205 274.227 192.934Z" fill="#DEBE16"/>
<line y1="-0.5" x2="14.2961" y2="-0.5" transform="matrix(0.700426 0.712657 0.937989 -0.351311 268.868 184.767)" stroke="#DEBE16"/>
<path d="M262.273 202.095C258.461 203.44 257.566 196.512 251.287 188.443C245.007 180.374 251.116 180.257 258.236 187.159C265.355 194.061 266.086 200.75 262.273 202.095Z" fill="#DEBE16"/>
<line y1="-0.5" x2="14.2775" y2="-0.5" transform="matrix(0.363647 0.930683 1.00072 0.0439528 260.565 192.487)" stroke="#DEBE16"/>
<path d="M247.568 210.542C243.638 211.493 243.457 204.51 238.037 195.845C232.616 187.18 238.705 187.684 245.081 195.273C251.457 202.863 251.499 209.592 247.568 210.542Z" fill="#DEBE16"/>
<line y1="-0.5" x2="14.2731" y2="-0.5" transform="matrix(0.266549 0.963076 0.990911 0.145401 246.853 200.811)" stroke="#DEBE16"/>
<path d="M236.079 214.523C232.044 214.795 233.056 207.883 229.192 198.426C225.327 188.97 231.241 190.497 236.231 199.055C241.22 207.614 240.115 214.251 236.079 214.523Z" fill="#DEBE16"/>
<line y1="-0.5" x2="14.2671" y2="-0.5" transform="matrix(0.0985369 0.994605 0.951608 0.310919 237.033 204.812)" stroke="#DEBE16"/>
<path d="M221.414 217.295C217.403 216.772 219.759 210.192 217.834 200.164C215.908 190.136 221.407 192.79 224.612 202.158C227.817 211.526 225.424 217.818 221.414 217.295Z" fill="#DEBE16"/>
<line y1="-0.5" x2="14.2629" y2="-0.5" transform="matrix(-0.0994921 0.994809 0.8717 0.491027 224.263 207.959)" stroke="#DEBE16"/>
<path d="M209.931 218.529C205.893 218.298 207.761 211.565 205.107 201.703C202.453 191.842 208.131 194.09 212.013 203.2C215.895 212.31 213.969 218.759 209.931 218.529Z" fill="#DEBE16"/>
<line y1="-0.5" x2="14.2641" y2="-0.5" transform="matrix(-0.026436 0.999305 0.905331 0.426425 212.09 209.01)" stroke="#DEBE16"/>
<path d="M193.46 216.626C189.462 216.01 191.972 209.487 190.283 199.417C188.593 189.346 194.028 192.128 197.012 201.568C199.996 211.008 197.457 217.243 193.46 216.626Z" fill="#DEBE16"/>
<line y1="-0.5" x2="14.2626" y2="-0.5" transform="matrix(-0.122813 0.992238 0.859933 0.511194 196.528 207.36)" stroke="#DEBE16"/>
<path d="M246.816 26.6017C250.289 24.4271 245.324 19.4597 242.839 9.5502C240.353 -0.359265 236.414 4.3787 237.44 14.2319C238.466 24.0852 243.343 28.7764 246.816 26.6017Z" fill="#DEBE16"/>
<line y1="-0.5" x2="14.2829" y2="-0.5" transform="matrix(0.513477 0.858667 -0.588915 0.806948 240.225 19.3446)" stroke="#DEBE16"/>
<path d="M257.47 32.2155C261.051 30.3967 256.658 24.875 255.126 14.6462C253.595 4.4175 249.33 8.7647 249.444 18.7822C249.558 28.7997 253.89 34.0343 257.47 32.2155Z" fill="#DEBE16"/>
<line y1="-0.5" x2="14.433" y2="-0.5" transform="matrix(0.418899 0.90839 -0.652938 0.756483 251.698 24.2191)" stroke="#DEBE16"/>
<path d="M267.268 37.2566C271.064 35.9395 267.464 29.8742 267.342 19.533C267.22 9.19183 262.401 12.9213 261.148 22.8613C259.895 32.8013 263.472 38.5738 267.268 37.2566Z" fill="#DEBE16"/>
<line y1="-0.5" x2="14.4313" y2="-0.5" transform="matrix(0.291151 0.956788 -0.750036 0.661051 262.641 28.5525)" stroke="#DEBE16"/>
<path d="M277.728 45.2191C281.602 44.1522 278.409 37.8653 278.966 27.5383C279.523 17.2113 274.47 20.6187 272.567 30.4558C270.663 40.2928 273.854 46.2861 277.728 45.2191Z" fill="#DEBE16"/>
<line y1="-0.5" x2="14.4311" y2="-0.5" transform="matrix(0.227701 0.973728 -0.791835 0.610746 273.682 36.2322)" stroke="#DEBE16"/>
<path d="M286.948 55.2034C290.945 54.7816 288.825 48.0593 291.069 37.9618C293.313 27.8644 287.769 30.4033 284.277 39.7981C280.786 49.193 282.951 55.6253 286.948 55.2034Z" fill="#DEBE16"/>
<line y1="-0.5" x2="14.4324" y2="-0.5" transform="matrix(0.0649055 0.997619 -0.881397 0.473623 284.43 45.6787)" stroke="#DEBE16"/>
<path d="M293.188 63.473C297.199 63.7303 296.251 56.7479 300.175 47.1735C304.1 37.5991 298.205 39.1679 293.17 47.8397C288.134 56.5115 289.177 63.2158 293.188 63.473Z" fill="#DEBE16"/>
<line y1="-0.5" x2="14.4363" y2="-0.5" transform="matrix(-0.105246 0.993924 -0.949138 0.318416 292.323 53.6615)" stroke="#DEBE16"/>
<path d="M298.81 73.4752C302.794 74.0067 302.33 66.9759 306.906 57.6931C311.482 48.4104 305.493 49.5715 299.871 57.8776C294.249 66.1838 294.826 72.9436 298.81 73.4752Z" fill="#DEBE16"/>
<line y1="-0.5" x2="14.4386" y2="-0.5" transform="matrix(-0.173598 0.984204 -0.968917 0.252624 298.624 63.6272)" stroke="#DEBE16"/>
<path d="M303.59 85.1429C307.488 86.1204 307.826 79.0824 313.428 70.3756C319.03 61.6687 312.947 62.1467 306.417 69.7653C299.887 77.3838 299.693 84.1653 303.59 85.1429Z" fill="#DEBE16"/>
<line y1="-0.5" x2="14.4429" y2="-0.5" transform="matrix(-0.284251 0.958002 -0.991479 0.141713 304.525 75.3379)" stroke="#DEBE16"/>
<path d="M307.528 97.8634C311.275 99.3146 312.485 92.3726 319.127 84.4243C325.768 76.4761 319.673 76.1995 312.246 82.9533C304.819 89.7071 303.782 96.4123 307.528 97.8634Z" fill="#DEBE16"/>
<line y1="-0.5" x2="14.4484" y2="-0.5" transform="matrix(-0.401054 0.915182 -1.00157 0.0182305 309.676 88.2488)" stroke="#DEBE16"/>
<path d="M308.874 114.054C312.219 116.273 314.899 109.753 323.1 103.412C331.3 97.0708 325.407 95.4959 316.697 100.502C307.986 105.508 305.528 111.835 308.874 114.054Z" fill="#DEBE16"/>
<line y1="-0.5" x2="14.4588" y2="-0.5" transform="matrix(-0.588636 0.807381 -0.982302 -0.196627 313.044 105.124)" stroke="#DEBE16"/>
<path d="M311.466 124.323C314.171 127.285 318.36 121.608 327.86 117.441C337.361 113.273 332.028 110.32 322.358 113.069C312.689 115.818 308.762 121.361 311.466 124.323Z" fill="#DEBE16"/>
<line y1="-0.5" x2="14.4696" y2="-0.5" transform="matrix(-0.767233 0.640329 -0.905162 -0.428475 317.688 116.669)" stroke="#DEBE16"/>
<path d="M310.596 134.783C312.872 138.084 317.797 133.027 327.778 130.185C337.759 127.344 332.878 123.695 322.923 125.109C312.968 126.523 308.321 131.482 310.596 134.783Z" fill="#DEBE16"/>
<line y1="-0.5" x2="14.4743" y2="-0.5" transform="matrix(-0.84723 0.530269 -0.838347 -0.54717 317.805 128.042)" stroke="#DEBE16"/>
<path d="M304.125 159.914C306.042 163.433 311.469 158.916 321.693 157.126C331.917 155.337 327.445 151.201 317.397 151.573C307.348 151.945 302.207 156.395 304.125 159.914Z" fill="#DEBE16"/>
<line y1="-0.5" x2="14.477" y2="-0.5" transform="matrix(-0.89794 0.439297 -0.776557 -0.631299 312 153.959)" stroke="#DEBE16"/>
<path d="M300.047 170.071C301.964 173.59 307.391 169.072 317.615 167.283C327.839 165.494 323.367 161.358 313.319 161.73C303.27 162.102 298.129 166.551 300.047 170.071Z" fill="#DEBE16"/>
<line y1="-0.5" x2="14.477" y2="-0.5" transform="matrix(-0.89794 0.439297 -0.776557 -0.631299 307.922 164.116)" stroke="#DEBE16"/>
<path d="M282.464 195.471C283.288 199.39 289.787 196.612 300.097 197.819C310.407 199.025 307.313 193.785 297.579 191.271C287.845 188.757 281.64 191.551 282.464 195.471Z" fill="#DEBE16"/>
<line y1="-0.5" x2="14.4792" y2="-0.5" transform="matrix(-0.986515 0.164329 -0.562293 -0.826653 291.722 192.016)" stroke="#DEBE16"/>
<path d="M269.211 206.642C270.035 210.562 276.535 207.784 286.845 208.99C297.154 210.197 294.06 204.957 284.326 202.443C274.593 199.929 268.387 202.723 269.211 206.642Z" fill="#DEBE16"/>
<line y1="-0.5" x2="14.4792" y2="-0.5" transform="matrix(-0.986515 0.164329 -0.562293 -0.826653 278.469 203.188)" stroke="#DEBE16"/>
<path d="M255.339 215.57C255.305 219.575 262.249 218.242 272.063 221.612C281.877 224.982 279.977 219.206 271.005 214.681C262.034 210.155 255.373 211.566 255.339 215.57Z" fill="#DEBE16"/>
<line y1="-0.5" x2="14.4757" y2="-0.5" transform="matrix(-0.999233 -0.0491554 -0.372295 -0.927077 265.124 214.163)" stroke="#DEBE16"/>
<path d="M241.536 221.043C240.728 224.966 247.8 224.992 256.779 230.182C265.757 235.373 265.009 229.34 257.081 223.178C249.153 217.015 242.344 217.121 241.536 221.043Z" fill="#DEBE16"/>
<line y1="-0.5" x2="14.4693" y2="-0.5" transform="matrix(-0.97143 -0.24015 -0.186003 -0.981051 251.409 221.54)" stroke="#DEBE16"/>
<path d="M225.875 225.156C224.235 228.812 231.134 230.361 238.772 237.364C246.41 244.368 246.99 238.316 240.589 230.591C234.187 222.865 227.516 221.501 225.875 225.156Z" fill="#DEBE16"/>
<line y1="-0.5" x2="14.4597" y2="-0.5" transform="matrix(-0.896853 -0.444173 0.0314748 -0.997724 235.407 227.77)" stroke="#DEBE16"/>
<path d="M212.159 226.035C209.112 228.647 214.693 232.975 218.612 242.551C222.532 252.127 225.642 246.898 223.15 237.192C220.658 227.486 215.205 223.423 212.159 226.035Z" fill="#DEBE16"/>
<line y1="-0.5" x2="14.4398" y2="-0.5" transform="matrix(-0.622619 -0.783345 0.454602 -0.889131 219.667 232.442)" stroke="#DEBE16"/>
<path d="M195.847 226.034C192.8 228.646 198.381 232.974 202.3 242.551C206.22 252.127 209.33 246.897 206.838 237.192C204.346 227.486 198.893 223.422 195.847 226.034Z" fill="#DEBE16"/>
<line y1="-0.5" x2="14.4398" y2="-0.5" transform="matrix(-0.622619 -0.783345 0.454602 -0.889131 203.355 232.442)" stroke="#DEBE16"/>
<path d="M291.811 182.908C293.513 186.536 299.202 182.35 309.516 181.176C319.829 180.001 315.614 175.605 305.561 175.376C295.508 175.146 290.109 179.28 291.811 182.908Z" fill="#DEBE16"/>
<line y1="-0.5" x2="14.4781" y2="-0.5" transform="matrix(-0.922713 0.384788 -0.737145 -0.676606 300.031 177.435)" stroke="#DEBE16"/>
<path d="M307.538 147.986C309.813 151.287 314.738 146.23 324.719 143.388C334.7 140.547 329.82 136.898 319.865 138.312C309.91 139.726 305.263 144.685 307.538 147.986Z" fill="#DEBE16"/>
<line y1="-0.5" x2="14.4743" y2="-0.5" transform="matrix(-0.84723 0.530269 -0.838347 -0.54717 314.747 141.245)" stroke="#DEBE16"/>
<path d="M235.535 24.0023C238.531 21.6329 233.357 17.0514 229.948 7.43376C226.539 -2.18384 223.393 2.74479 225.436 12.4009C227.479 22.057 232.54 26.3718 235.535 24.0023Z" fill="#DEBE16"/>
<line y1="-0.5" x2="14.2128" y2="-0.5" transform="matrix(0.575924 0.818195 -0.481872 0.874778 228.594 17.2662)" stroke="#DEBE16"/>
<path d="M188.596 219.803C188.596 219.803 181.29 218.847 174.324 219.803C166.746 220.842 163.62 223.759 155.465 233.006C147.309 242.253 141.702 242.655 141.702 242.655" stroke="#DEBE16" stroke-width="3"/>
<defs>
<filter id="filter0_d_22_1261" x="71.342" y="75.2859" width="182.989" height="28.2861" filterUnits="userSpaceOnUse" color-interpolation-filters="sRGB">
<feFlood flood-opacity="0" result="BackgroundImageFix"/>
<feColorMatrix in="SourceAlpha" type="matrix" values="0 0 0 0 0 0 0 0 0 0 0 0 0 0 0 0 0 0 127 0" result="hardAlpha"/>
<feOffset dy="4"/>
<feGaussianBlur stdDeviation="2"/>
<feComposite in2="hardAlpha" operator="out"/>
<feColorMatrix type="matrix" values="0 0 0 0 0 0 0 0 0 0 0 0 0 0 0 0 0 0 0.25 0"/>
<feBlend mode="normal" in2="BackgroundImageFix" result="effect1_dropShadow_22_1261"/>
<feBlend mode="normal" in="SourceGraphic" in2="effect1_dropShadow_22_1261" result="shape"/>
</filter>
<filter id="filter1_d_22_1261" x="106.52" y="130.585" width="132.869" height="42.28" filterUnits="userSpaceOnUse" color-interpolation-filters="sRGB">
<feFlood flood-opacity="0" result="BackgroundImageFix"/>
<feColorMatrix in="SourceAlpha" type="matrix" values="0 0 0 0 0 0 0 0 0 0 0 0 0 0 0 0 0 0 127 0" result="hardAlpha"/>
<feOffset dy="4"/>
<feGaussianBlur stdDeviation="2"/>
<feComposite in2="hardAlpha" operator="out"/>
<feColorMatrix type="matrix" values="0 0 0 0 0 0 0 0 0 0 0 0 0 0 0 0 0 0 0.25 0"/>
<feBlend mode="normal" in2="BackgroundImageFix" result="effect1_dropShadow_22_1261"/>
<feBlend mode="normal" in="SourceGraphic" in2="effect1_dropShadow_22_1261" result="shape"/>
</filter>
</defs>
</svg>
