<svg width="336" height="252" viewBox="0 0 336 252" fill="none" xmlns="http://www.w3.org/2000/svg">
<g filter="url(#filter0_d_22_961)">
<path d="M86.502 83.296C87.342 83.644 87.996 84.136 88.464 84.772C88.944 85.396 89.184 86.092 89.184 86.86C89.184 87.616 88.842 88.33 88.158 89.002C87.474 89.662 86.622 90.19 85.602 90.586C84.594 90.982 83.628 91.18 82.704 91.18C82.104 91.18 81.516 91.15 80.94 91.09C79.98 91.03 79.236 91 78.708 91H75.702V89.722L77.394 88.39V78.778L75.342 78.292L76.062 76.852H78.69C79.782 76.852 80.856 76.816 81.912 76.744C82.728 76.696 83.328 76.672 83.712 76.672C84.66 76.672 85.494 76.828 86.214 77.14C86.934 77.452 87.486 77.878 87.87 78.418C88.266 78.946 88.464 79.54 88.464 80.2C88.464 80.776 88.284 81.334 87.924 81.874C87.576 82.402 87.102 82.882 86.502 83.314V83.296ZM84.432 81.208C84.432 80.392 84.252 79.744 83.892 79.264C83.544 78.772 83.022 78.526 82.326 78.526C81.954 78.526 81.606 78.58 81.282 78.688V83.17H82.956C83.94 83.17 84.432 82.516 84.432 81.208ZM83.208 89.128C83.808 89.128 84.276 88.972 84.612 88.66C84.96 88.348 85.134 87.91 85.134 87.346C85.134 86.59 84.936 85.972 84.54 85.492C84.144 85 83.562 84.73 82.794 84.682H82.452H81.282V88.804C81.858 89.008 82.506 89.11 83.226 89.11L83.208 89.128ZM96.3989 81.046C97.7309 81.046 98.7629 81.544 99.4949 82.54C100.227 83.536 100.575 84.952 100.539 86.788H94.1849C94.3289 87.34 94.5689 87.778 94.9049 88.102C95.2409 88.414 95.6669 88.57 96.1829 88.57C97.0349 88.57 98.3069 88.258 99.9989 87.634L100.539 88.858L98.0729 90.838C97.2569 91.066 96.2789 91.18 95.1389 91.18C94.2029 91.18 93.3629 90.976 92.6189 90.568C91.8869 90.148 91.3109 89.578 90.8909 88.858C90.4829 88.126 90.2789 87.316 90.2789 86.428C90.2789 85.468 90.5969 84.574 91.2329 83.746C91.8689 82.918 92.6669 82.264 93.6269 81.784C94.5869 81.292 95.5169 81.046 96.4169 81.046H96.3989ZM95.4449 83.458C95.0009 83.458 94.6649 83.614 94.4369 83.926C94.2089 84.226 94.0829 84.694 94.0589 85.33H97.0289C96.9689 84.694 96.8129 84.226 96.5609 83.926C96.3089 83.614 95.9309 83.458 95.4269 83.458H95.4449ZM106.981 88.516C106.981 88.348 106.843 88.168 106.567 87.976C106.303 87.772 105.877 87.496 105.289 87.148C104.341 86.596 103.603 86.098 103.075 85.654C102.547 85.21 102.283 84.718 102.283 84.178C102.283 83.746 102.505 83.284 102.949 82.792C103.393 82.3 103.933 81.886 104.569 81.55C105.217 81.214 105.811 81.046 106.351 81.046C107.011 81.046 107.779 81.118 108.655 81.262C109.531 81.394 110.167 81.544 110.563 81.712V84.844H109.159C108.871 84.34 108.517 83.944 108.097 83.656C107.677 83.356 107.251 83.206 106.819 83.206C106.651 83.206 106.519 83.254 106.423 83.35C106.339 83.446 106.297 83.566 106.297 83.71C106.297 83.902 106.435 84.106 106.711 84.322C106.999 84.526 107.449 84.808 108.061 85.168C108.985 85.696 109.705 86.176 110.221 86.608C110.737 87.04 110.995 87.52 110.995 88.048C110.995 88.492 110.767 88.96 110.311 89.452C109.855 89.932 109.297 90.34 108.637 90.676C107.977 91.012 107.371 91.18 106.819 91.18C106.123 91.18 105.295 91.114 104.335 90.982C103.375 90.838 102.685 90.682 102.265 90.514V87.202H103.669C104.005 87.766 104.419 88.21 104.911 88.534C105.403 88.858 105.889 89.02 106.369 89.02C106.549 89.02 106.693 88.972 106.801 88.876C106.921 88.78 106.981 88.66 106.981 88.516ZM118.782 91.036C118.29 91.132 117.714 91.18 117.054 91.18C115.806 91.18 114.894 90.922 114.318 90.406C113.742 89.878 113.454 89.068 113.454 87.976V83.224H111.51V82.126L115.65 77.788H117.054V81.766H120.294V83.224H117.054V87.652C117.054 88.384 117.522 88.75 118.458 88.75C118.698 88.75 118.932 88.726 119.16 88.678C119.4 88.618 119.7 88.516 120.06 88.372L120.6 89.596L118.782 91.036ZM140.597 81.748L139.337 82.288L136.727 78.562H135.377V89.074L137.447 89.56L136.727 91H129.815V89.722L131.507 88.39V78.562H130.211L127.601 82.288L126.341 81.748V76.528L127.835 76.852H139.103L140.597 76.528V81.748ZM151.667 91H147.167V89.434L145.133 91.036C144.893 91.132 144.593 91.18 144.233 91.18C143.009 91.18 142.121 90.886 141.569 90.298C141.029 89.698 140.759 88.978 140.759 88.138C140.759 87.658 140.897 87.19 141.173 86.734C141.449 86.266 141.851 85.834 142.379 85.438H147.167C147.131 84.91 146.951 84.514 146.627 84.25C146.303 83.974 145.895 83.836 145.403 83.836C144.575 83.836 143.363 84.088 141.767 84.592L141.227 83.368L143.693 81.388C144.353 81.16 145.145 81.046 146.069 81.046C147.557 81.046 148.715 81.376 149.543 82.036C150.371 82.684 150.785 83.638 150.785 84.898V88.93L152.387 89.56L151.667 91ZM145.331 88.21C145.859 88.21 146.471 88.006 147.167 87.598V86.896H144.431C144.371 87.004 144.329 87.1 144.305 87.184C144.281 87.256 144.269 87.352 144.269 87.472C144.269 87.7 144.359 87.88 144.539 88.012C144.731 88.144 145.001 88.21 145.349 88.21H145.331ZM159.774 91.036C159.282 91.132 158.706 91.18 158.046 91.18C156.798 91.18 155.886 90.922 155.31 90.406C154.734 89.878 154.446 89.068 154.446 87.976V83.224H152.502V82.126L156.642 77.788H158.046V81.766H161.286V83.224H158.046V87.652C158.046 88.384 158.514 88.75 159.45 88.75C159.69 88.75 159.924 88.726 160.152 88.678C160.392 88.618 160.692 88.516 161.052 88.372L161.592 89.596L159.774 91.036ZM169.038 91.036C168.546 91.132 167.97 91.18 167.31 91.18C166.062 91.18 165.15 90.922 164.574 90.406C163.998 89.878 163.71 89.068 163.71 87.976V83.224H161.766V82.126L165.906 77.788H167.31V81.766H170.55V83.224H167.31V87.652C167.31 88.384 167.778 88.75 168.714 88.75C168.954 88.75 169.188 88.726 169.416 88.678C169.656 88.618 169.956 88.516 170.316 88.372L170.856 89.596L169.038 91.036ZM177.716 81.046C178.652 81.046 179.486 81.256 180.218 81.676C180.962 82.084 181.538 82.654 181.946 83.386C182.366 84.106 182.576 84.91 182.576 85.798C182.576 86.758 182.258 87.652 181.622 88.48C180.986 89.308 180.188 89.968 179.228 90.46C178.268 90.94 177.338 91.18 176.438 91.18C175.502 91.18 174.662 90.976 173.918 90.568C173.186 90.148 172.61 89.578 172.19 88.858C171.782 88.126 171.578 87.316 171.578 86.428C171.578 85.468 171.896 84.574 172.532 83.746C173.168 82.918 173.966 82.264 174.926 81.784C175.886 81.292 176.816 81.046 177.716 81.046ZM176.672 83.458C176.288 83.458 175.988 83.638 175.772 83.998C175.568 84.346 175.466 84.868 175.466 85.564C175.466 86.5 175.64 87.268 175.988 87.868C176.348 88.468 176.846 88.768 177.482 88.768C177.866 88.768 178.16 88.588 178.364 88.228C178.58 87.868 178.688 87.34 178.688 86.644C178.688 85.708 178.508 84.946 178.148 84.358C177.8 83.758 177.308 83.458 176.672 83.458ZM190.513 81.046C191.449 81.046 192.283 81.256 193.015 81.676C193.759 82.084 194.335 82.654 194.743 83.386C195.163 84.106 195.373 84.91 195.373 85.798C195.373 86.758 195.055 87.652 194.419 88.48C193.783 89.308 192.985 89.968 192.025 90.46C191.065 90.94 190.135 91.18 189.235 91.18C188.299 91.18 187.459 90.976 186.715 90.568C185.983 90.148 185.407 89.578 184.987 88.858C184.579 88.126 184.375 87.316 184.375 86.428C184.375 85.468 184.693 84.574 185.329 83.746C185.965 82.918 186.763 82.264 187.723 81.784C188.683 81.292 189.613 81.046 190.513 81.046ZM189.469 83.458C189.085 83.458 188.785 83.638 188.569 83.998C188.365 84.346 188.263 84.868 188.263 85.564C188.263 86.5 188.437 87.268 188.785 87.868C189.145 88.468 189.643 88.768 190.279 88.768C190.663 88.768 190.957 88.588 191.161 88.228C191.377 87.868 191.485 87.34 191.485 86.644C191.485 85.708 191.305 84.946 190.945 84.358C190.597 83.758 190.105 83.458 189.469 83.458ZM206.825 88.516C206.825 88.348 206.687 88.168 206.411 87.976C206.147 87.772 205.721 87.496 205.133 87.148C204.185 86.596 203.447 86.098 202.919 85.654C202.391 85.21 202.127 84.718 202.127 84.178C202.127 83.746 202.349 83.284 202.793 82.792C203.237 82.3 203.777 81.886 204.413 81.55C205.061 81.214 205.655 81.046 206.195 81.046C206.855 81.046 207.623 81.118 208.499 81.262C209.375 81.394 210.011 81.544 210.407 81.712V84.844H209.003C208.715 84.34 208.361 83.944 207.941 83.656C207.521 83.356 207.095 83.206 206.663 83.206C206.495 83.206 206.363 83.254 206.267 83.35C206.183 83.446 206.141 83.566 206.141 83.71C206.141 83.902 206.279 84.106 206.555 84.322C206.843 84.526 207.293 84.808 207.905 85.168C208.829 85.696 209.549 86.176 210.065 86.608C210.581 87.04 210.839 87.52 210.839 88.048C210.839 88.492 210.611 88.96 210.155 89.452C209.699 89.932 209.141 90.34 208.481 90.676C207.821 91.012 207.215 91.18 206.663 91.18C205.967 91.18 205.139 91.114 204.179 90.982C203.219 90.838 202.529 90.682 202.109 90.514V87.202H203.513C203.849 87.766 204.263 88.21 204.755 88.534C205.247 88.858 205.733 89.02 206.213 89.02C206.393 89.02 206.537 88.972 206.645 88.876C206.765 88.78 206.825 88.66 206.825 88.516ZM223.846 90.982H219.346V85.42C219.346 84.904 219.268 84.538 219.112 84.322C218.968 84.106 218.71 83.998 218.338 83.998C217.822 83.998 217.318 84.124 216.826 84.376V89.056L218.446 89.56L217.726 91H211.624V89.722L213.226 88.318V79.21L211.624 78.166V76.888L215.422 75.286H216.826V82.594L218.572 81.19C218.896 81.094 219.286 81.046 219.742 81.046C220.726 81.046 221.506 81.298 222.082 81.802C222.658 82.294 222.946 82.966 222.946 83.818V89.056L224.566 89.542L223.846 90.982ZM231.522 81.046C232.458 81.046 233.292 81.256 234.024 81.676C234.768 82.084 235.344 82.654 235.752 83.386C236.172 84.106 236.382 84.91 236.382 85.798C236.382 86.758 236.064 87.652 235.428 88.48C234.792 89.308 233.994 89.968 233.034 90.46C232.074 90.94 231.144 91.18 230.244 91.18C229.308 91.18 228.468 90.976 227.724 90.568C226.992 90.148 226.416 89.578 225.996 88.858C225.588 88.126 225.384 87.316 225.384 86.428C225.384 85.468 225.702 84.574 226.338 83.746C226.974 82.918 227.772 82.264 228.732 81.784C229.692 81.292 230.622 81.046 231.522 81.046ZM230.478 83.458C230.094 83.458 229.794 83.638 229.578 83.998C229.374 84.346 229.272 84.868 229.272 85.564C229.272 86.5 229.446 87.268 229.794 87.868C230.154 88.468 230.652 88.768 231.288 88.768C231.672 88.768 231.966 88.588 232.17 88.228C232.386 87.868 232.494 87.34 232.494 86.644C232.494 85.708 232.314 84.946 231.954 84.358C231.606 83.758 231.114 83.458 230.478 83.458ZM244.175 91.18C243.791 91.18 243.437 91.09 243.113 90.91V93.43L245.993 94.132L245.273 95.572H237.911V94.294L239.513 92.89V84.808L237.911 83.764V82.486L242.069 80.884L242.825 82.846L244.877 81.19C245.261 81.094 245.699 81.046 246.191 81.046C246.983 81.046 247.691 81.256 248.315 81.676C248.951 82.084 249.443 82.654 249.791 83.386C250.151 84.106 250.331 84.91 250.331 85.798C250.331 86.758 250.013 87.652 249.377 88.48C248.741 89.308 247.943 89.968 246.983 90.46C246.023 90.94 245.093 91.18 244.193 91.18H244.175ZM244.931 83.998C244.283 83.998 243.671 84.13 243.095 84.394V87.004C243.095 87.508 243.281 87.928 243.653 88.264C244.025 88.6 244.547 88.768 245.219 88.768C246.095 88.768 246.533 88.06 246.533 86.644C246.533 85.864 246.401 85.228 246.137 84.736C245.873 84.244 245.477 83.998 244.949 83.998H244.931Z" fill="#E122D9"/>
</g>
<g filter="url(#filter1_d_22_961)">
<path d="M122.807 155.229L119.007 154.509H98.6467V151.669C101.98 149.162 104.5 147.176 106.207 145.709C107.94 144.216 109.153 143.002 109.847 142.069C110.54 141.109 110.887 140.229 110.887 139.429C110.887 138.602 110.567 137.922 109.927 137.389C109.313 136.856 108.527 136.589 107.567 136.589C105.753 136.589 103.06 137.282 99.4867 138.669L98.2867 135.949L103.767 131.549C105.1 131.042 106.74 130.789 108.687 130.789C110.927 130.789 112.887 131.056 114.567 131.589C116.273 132.096 117.593 132.829 118.527 133.789C119.46 134.749 119.927 135.869 119.927 137.149C119.927 138.109 119.22 139.389 117.807 140.989C116.393 142.589 114.26 144.402 111.407 146.429H118.407L119.967 142.789L122.807 143.629V155.229ZM147.824 130.749C150.251 130.749 152.411 131.242 154.304 132.229C156.224 133.216 157.704 134.576 158.744 136.309C159.811 138.042 160.344 139.976 160.344 142.109C160.344 144.402 159.531 146.536 157.904 148.509C156.304 150.456 154.304 152.002 151.904 153.149C149.504 154.296 147.197 154.869 144.984 154.869C142.557 154.869 140.397 154.376 138.504 153.389C136.611 152.402 135.131 151.042 134.064 149.309C132.997 147.576 132.464 145.642 132.464 143.509C132.464 141.216 133.264 139.096 134.864 137.149C136.491 135.176 138.504 133.616 140.904 132.469C143.304 131.322 145.611 130.749 147.824 130.749ZM145.504 135.709C142.571 135.709 141.104 137.669 141.104 141.589C141.104 143.989 141.637 145.976 142.704 147.549C143.771 149.122 145.304 149.909 147.304 149.909C150.237 149.909 151.704 147.936 151.704 143.989C151.704 141.589 151.171 139.616 150.104 138.069C149.037 136.496 147.504 135.709 145.504 135.709ZM194.299 155.229L190.499 154.509H170.139V151.669C173.472 149.162 175.992 147.176 177.699 145.709C179.432 144.216 180.646 143.002 181.339 142.069C182.032 141.109 182.379 140.229 182.379 139.429C182.379 138.602 182.059 137.922 181.419 137.389C180.806 136.856 180.019 136.589 179.059 136.589C177.246 136.589 174.552 137.282 170.979 138.669L169.779 135.949L175.259 131.549C176.592 131.042 178.232 130.789 180.179 130.789C182.419 130.789 184.379 131.056 186.059 131.589C187.766 132.096 189.086 132.829 190.019 133.789C190.952 134.749 191.419 135.869 191.419 137.149C191.419 138.109 190.712 139.389 189.299 140.989C187.886 142.589 185.752 144.402 182.899 146.429H189.899L191.459 142.789L194.299 143.629V155.229ZM225.956 152.829V160.669L217.956 163.029V152.829H203.156V149.989L217.956 132.349L225.956 129.989V148.389H232.076L230.676 152.829H225.956ZM217.956 138.549L209.716 148.389H217.956V138.549Z" fill="black"/>
</g>
<path d="M114.599 24.7366C-17.9276 49.6197 12.1457 244.623 149.26 220.755" stroke="#DEBE16" stroke-width="3"/>
<path d="M109.95 23.751C109.957 27.2937 114.598 29.9196 119.374 25.4303C124.15 20.9411 122.857 21.0777 118.137 19.2252C113.418 17.3726 109.943 20.2082 109.95 23.751Z" fill="#DEBE16"/>
<path d="M103.716 31.5037C103.078 35.2913 110.081 35.2663 119.183 40.2077C128.286 45.1491 127.296 39.3377 119.193 33.452C111.09 27.5663 104.354 27.7162 103.716 31.5037Z" fill="#DEBE16"/>
<line y1="-0.5" x2="14.42" y2="-0.5" transform="matrix(-0.97489 -0.225476 -0.231086 -0.971461 113.511 31.9132)" stroke="#DEBE16"/>
<path d="M92.6525 35.8947C91.9005 39.5866 98.7958 39.8238 107.596 45.0118C116.397 50.1997 115.613 44.4616 107.827 38.3847C100.042 32.3078 93.4045 32.2029 92.6525 35.8947Z" fill="#DEBE16"/>
<line y1="-0.5" x2="14.2195" y2="-0.5" transform="matrix(-0.965942 -0.261279 -0.199116 -0.978433 102.283 36.6628)" stroke="#DEBE16"/>
<path d="M82.6322 40.4669C81.4594 44.3235 88.448 44.8937 96.8281 50.7708C105.208 56.6479 105.044 50.563 97.7949 43.796C90.5457 37.029 83.8051 36.6103 82.6322 40.4669Z" fill="#DEBE16"/>
<line y1="-0.5" x2="14.2961" y2="-0.5" transform="matrix(-0.948715 -0.318535 -0.0902923 -0.994285 92.3452 41.7235)" stroke="#DEBE16"/>
<path d="M71.348 47.4976C70.569 51.4518 77.5797 51.3215 86.5088 56.3325C95.4378 61.3434 94.6625 55.3056 86.7692 49.2963C78.8758 43.287 72.127 43.5433 71.348 47.4976Z" fill="#DEBE16"/>
<line y1="-0.5" x2="14.3002" y2="-0.5" transform="matrix(-0.9757 -0.222162 -0.189855 -0.980351 81.1384 47.7784)" stroke="#DEBE16"/>
<path d="M63.0647 55.4602C62.677 59.4714 69.6414 58.6596 79.019 62.7778C88.3965 66.8961 87.0331 60.9625 78.5884 55.7499C70.1438 50.5373 63.4524 51.4491 63.0647 55.4602Z" fill="#DEBE16"/>
<line y1="-0.5" x2="14.3036" y2="-0.5" transform="matrix(-0.992577 -0.126141 -0.285064 -0.957262 72.8362 54.787)" stroke="#DEBE16"/>
<path d="M53.7887 62.4364C53.6316 66.463 60.5381 65.2562 70.1365 68.834C79.7349 72.4119 78.0335 66.5656 69.3037 61.8421C60.574 57.1186 53.9457 58.4097 53.7887 62.4364Z" fill="#DEBE16"/>
<line y1="-0.5" x2="14.3053" y2="-0.5" transform="matrix(-0.998072 -0.0694371 -0.339499 -0.939508 63.5054 61.2083)" stroke="#DEBE16"/>
<path d="M49.7449 71.6232C49.5142 75.6464 56.4417 74.5651 65.973 78.3166C75.5043 82.0681 73.9101 76.1919 65.2682 71.3107C56.6263 66.4295 49.9756 67.6001 49.7449 71.6232Z" fill="#DEBE16"/>
<line y1="-0.5" x2="14.3047" y2="-0.5" transform="matrix(-0.996672 -0.0875463 -0.322257 -0.945505 59.4824 70.5718)" stroke="#DEBE16"/>
<path d="M44.3522 80.3669C44.6599 84.3849 51.3818 82.3964 61.3289 84.8533C71.2759 87.3102 68.9124 81.6971 59.6963 78.0028C50.4801 74.3085 44.0444 76.3488 44.3522 80.3669Z" fill="#DEBE16"/>
<line y1="-0.5" x2="14.3078" y2="-0.5" transform="matrix(-0.999296 0.0451163 -0.445493 -0.894538 53.8633 78.0364)" stroke="#DEBE16"/>
<path d="M40.4017 91.711C40.4999 95.7395 47.3163 94.1011 57.122 97.0688C66.9278 100.036 64.8597 94.3087 55.8483 90.1431C46.8369 85.9775 40.3036 87.6825 40.4017 91.711Z" fill="#DEBE16"/>
<line y1="-0.5" x2="14.3068" y2="-0.5" transform="matrix(-1.00037 -0.00658768 -0.398309 -0.916336 50.0215 89.875)" stroke="#DEBE16"/>
<path d="M36.374 104.453C36.9676 108.439 43.5307 105.98 53.6278 107.727C63.725 109.473 60.9671 104.042 51.5107 101.009C42.0544 97.9765 35.7805 100.467 36.374 104.453Z" fill="#DEBE16"/>
<line y1="-0.5" x2="14.3089" y2="-0.5" transform="matrix(-0.993481 0.115735 -0.508178 -0.860758 45.6948 101.455)" stroke="#DEBE16"/>
<path d="M35.6244 117.202C36.7004 121.087 42.9144 117.85 53.1498 118.359C63.3852 118.869 59.9844 113.812 50.2279 111.948C40.4715 110.085 34.5484 113.318 35.6244 117.202Z" fill="#DEBE16"/>
<line y1="-0.5" x2="14.3095" y2="-0.5" transform="matrix(-0.971916 0.235307 -0.609545 -0.792764 44.5098 113.096)" stroke="#DEBE16"/>
<path d="M33.5858 127.359C34.6618 131.243 40.8758 128.007 51.1112 128.516C61.3466 129.026 57.9458 123.969 48.1894 122.105C38.4329 120.242 32.5098 123.474 33.5858 127.359Z" fill="#DEBE16"/>
<line y1="-0.5" x2="14.3095" y2="-0.5" transform="matrix(-0.971916 0.235307 -0.609545 -0.792764 42.4709 123.253)" stroke="#DEBE16"/>
<path d="M34.6051 138.531C35.6811 142.416 41.8951 139.179 52.1305 139.688C62.3659 140.198 58.9651 135.141 49.2086 133.277C39.4522 131.414 33.5291 134.647 34.6051 138.531Z" fill="#DEBE16"/>
<line y1="-0.5" x2="14.3095" y2="-0.5" transform="matrix(-0.971916 0.235307 -0.609545 -0.792764 43.4905 134.425)" stroke="#DEBE16"/>
<path d="M37.2129 149.608C38.5966 153.394 44.5315 149.674 54.7751 149.368C65.0187 149.062 61.2237 144.292 51.3491 143.21C41.4745 142.128 35.8292 145.821 37.2129 149.608Z" fill="#DEBE16"/>
<line y1="-0.5" x2="14.3092" y2="-0.5" transform="matrix(-0.949994 0.311823 -0.671088 -0.741778 45.7412 144.808)" stroke="#DEBE16"/>
<path d="M39.2647 161.431C41.2384 164.949 46.4998 160.331 56.5625 158.397C66.6251 156.463 62.1132 152.358 52.192 152.863C42.2708 153.369 37.291 157.914 39.2647 161.431Z" fill="#DEBE16"/>
<line y1="-0.5" x2="14.3068" y2="-0.5" transform="matrix(-0.887865 0.459244 -0.78148 -0.625279 46.9128 155.335)" stroke="#DEBE16"/>
<path d="M45.423 171.744C47.4216 175.247 52.6501 170.592 62.6989 168.588C72.7476 166.583 68.2068 162.511 58.2894 163.086C48.372 163.66 43.4245 168.24 45.423 171.744Z" fill="#DEBE16"/>
<line y1="-0.5" x2="14.3066" y2="-0.5" transform="matrix(-0.884605 0.465471 -0.785881 -0.619776 53.0276 165.594)" stroke="#DEBE16"/>
<path d="M52.1177 183.113C54.4732 186.389 59.1841 181.215 68.9671 178.173C78.7501 175.132 73.8064 171.555 64.0039 173.161C54.2013 174.766 49.7621 179.837 52.1177 183.113Z" fill="#DEBE16"/>
<line y1="-0.5" x2="14.3038" y2="-0.5" transform="matrix(-0.831016 0.555257 -0.846619 -0.534402 59.0347 176.204)" stroke="#DEBE16"/>
<path d="M61.1685 194.074C64.1445 196.803 67.6985 190.781 76.6545 185.818C85.6105 180.855 80.039 178.357 70.7704 181.918C61.5017 185.48 58.1925 191.345 61.1685 194.074Z" fill="#DEBE16"/>
<line y1="-0.5" x2="14.2961" y2="-0.5" transform="matrix(-0.700426 0.712657 -0.937989 -0.351311 66.5276 185.907)" stroke="#DEBE16"/>
<path d="M73.1226 203.236C76.9354 204.581 77.8297 197.653 84.1092 189.584C90.3888 181.515 84.2801 181.398 77.1604 188.3C70.0407 195.202 69.3099 201.891 73.1226 203.236Z" fill="#DEBE16"/>
<line y1="-0.5" x2="14.2775" y2="-0.5" transform="matrix(-0.363647 0.930683 -1.00072 0.0439529 74.8311 193.628)" stroke="#DEBE16"/>
<path d="M87.8275 211.681C91.7581 212.632 91.9383 205.649 97.3591 196.984C102.78 188.319 96.691 188.823 90.3151 196.413C83.9392 204.002 83.8969 210.731 87.8275 211.681Z" fill="#DEBE16"/>
<line y1="-0.5" x2="14.2731" y2="-0.5" transform="matrix(-0.266549 0.963076 -0.990911 0.145401 88.5435 201.949)" stroke="#DEBE16"/>
<path d="M99.3166 215.663C103.352 215.935 102.339 209.022 106.204 199.566C110.069 190.11 104.154 191.637 99.1651 200.195C94.1757 208.754 95.2811 215.391 99.3166 215.663Z" fill="#DEBE16"/>
<line y1="-0.5" x2="14.2671" y2="-0.5" transform="matrix(-0.098537 0.994605 -0.951608 0.310919 98.3628 205.952)" stroke="#DEBE16"/>
<path d="M113.981 218.433C117.992 217.91 115.636 211.33 117.561 201.302C119.486 191.274 113.988 193.928 110.783 203.296C107.578 212.664 109.971 218.956 113.981 218.433Z" fill="#DEBE16"/>
<line y1="-0.5" x2="14.2629" y2="-0.5" transform="matrix(0.0994922 0.994809 -0.8717 0.491027 111.131 209.097)" stroke="#DEBE16"/>
<path d="M125.464 219.668C129.503 219.438 127.634 212.704 130.288 202.843C132.942 192.981 127.264 195.229 123.383 204.339C119.501 213.449 121.426 219.899 125.464 219.668Z" fill="#DEBE16"/>
<line y1="-0.5" x2="14.2641" y2="-0.5" transform="matrix(0.026436 0.999305 -0.905331 0.426425 123.305 210.15)" stroke="#DEBE16"/>
<path d="M141.936 217.766C145.934 217.15 143.424 210.627 145.113 200.556C146.803 190.486 141.368 193.268 138.384 202.708C135.4 212.148 137.939 218.383 141.936 217.766Z" fill="#DEBE16"/>
<line y1="-0.5" x2="14.2626" y2="-0.5" transform="matrix(0.122813 0.992238 -0.859934 0.511194 138.868 208.499)" stroke="#DEBE16"/>
<path d="M88.5788 27.7412C85.1056 25.5665 90.071 20.5991 92.5562 10.6896C95.0414 0.78014 98.9803 5.51811 97.9547 15.3714C96.9291 25.2246 92.0521 29.9158 88.5788 27.7412Z" fill="#DEBE16"/>
<line y1="-0.5" x2="14.2829" y2="-0.5" transform="matrix(-0.513477 0.858667 0.588916 0.806948 95.1702 20.484)" stroke="#DEBE16"/>
<path d="M77.9255 33.3551C74.3447 31.5363 78.738 26.0146 80.2695 15.7859C81.8011 5.55715 86.0662 9.90436 85.9522 19.9219C85.8383 29.9394 81.5064 35.174 77.9255 33.3551Z" fill="#DEBE16"/>
<line y1="-0.5" x2="14.433" y2="-0.5" transform="matrix(-0.4189 0.90839 0.652938 0.756482 83.6973 25.3584)" stroke="#DEBE16"/>
<path d="M68.1277 38.3958C64.332 37.0786 67.9314 31.0134 68.0536 20.6722C68.1758 10.331 72.9943 14.0605 74.2477 24.0005C75.5011 33.9405 71.9234 39.713 68.1277 38.3958Z" fill="#DEBE16"/>
<line y1="-0.5" x2="14.4313" y2="-0.5" transform="matrix(-0.291151 0.956788 0.750036 0.661051 72.7554 29.6917)" stroke="#DEBE16"/>
<path d="M57.6677 46.3587C53.7936 45.2917 56.9871 39.0049 56.4299 28.6779C55.8728 18.3508 60.9259 21.7583 62.8293 31.5953C64.7328 41.4323 61.5418 47.4256 57.6677 46.3587Z" fill="#DEBE16"/>
<line y1="-0.5" x2="14.4311" y2="-0.5" transform="matrix(-0.227701 0.973728 0.791836 0.610746 61.7139 37.3716)" stroke="#DEBE16"/>
<path d="M48.448 56.3436C44.451 55.9217 46.5703 49.1994 44.3266 39.102C42.083 29.0045 47.627 31.5434 51.1185 40.9383C54.61 50.3331 52.445 56.7654 48.448 56.3436Z" fill="#DEBE16"/>
<line y1="-0.5" x2="14.4324" y2="-0.5" transform="matrix(-0.0649056 0.997619 0.881397 0.473623 50.9656 46.8186)" stroke="#DEBE16"/>
<path d="M42.2079 64.6129C38.1968 64.8702 39.1451 57.8878 35.2207 48.3134C31.2963 38.739 37.1913 40.3078 42.2264 48.9796C47.2616 57.6514 46.219 64.3557 42.2079 64.6129Z" fill="#DEBE16"/>
<line y1="-0.5" x2="14.4363" y2="-0.5" transform="matrix(0.105247 0.993924 0.949138 0.318416 43.0732 54.801)" stroke="#DEBE16"/>
<path d="M36.5857 74.6151C32.6019 75.1466 33.0658 68.1158 28.4896 58.833C23.9134 49.5503 29.9028 50.7114 35.5248 59.0175C41.1467 67.3237 40.5695 74.0835 36.5857 74.6151Z" fill="#DEBE16"/>
<line y1="-0.5" x2="14.4386" y2="-0.5" transform="matrix(0.173598 0.984204 0.968917 0.252624 36.7715 64.7676)" stroke="#DEBE16"/>
<path d="M31.8054 86.2827C27.9076 87.2603 27.5695 80.2223 21.9677 71.5155C16.3659 62.8086 22.4488 63.2866 28.9786 70.9052C35.5084 78.5237 35.7031 85.3052 31.8054 86.2827Z" fill="#DEBE16"/>
<line y1="-0.5" x2="14.4429" y2="-0.5" transform="matrix(0.284251 0.958002 0.991479 0.141713 30.8708 76.4778)" stroke="#DEBE16"/>
<path d="M27.8673 99.0028C24.1212 100.454 22.9103 93.512 16.2689 85.5637C9.6274 77.6155 15.7228 77.3389 23.1498 84.0927C30.5768 90.8465 31.6135 97.5517 27.8673 99.0028Z" fill="#DEBE16"/>
<line y1="-0.5" x2="14.4484" y2="-0.5" transform="matrix(0.401054 0.915182 1.00157 0.0182305 25.7205 89.3879)" stroke="#DEBE16"/>
<path d="M26.5209 115.194C23.1752 117.413 20.4955 110.893 12.295 104.552C4.09451 98.2107 9.98791 96.6358 18.698 101.642C27.4081 106.648 29.8666 112.975 26.5209 115.194Z" fill="#DEBE16"/>
<line y1="-0.5" x2="14.4588" y2="-0.5" transform="matrix(0.588636 0.807381 0.982303 -0.196627 22.3506 106.263)" stroke="#DEBE16"/>
<path d="M23.9295 125.463C21.2248 128.425 17.036 122.747 7.53543 118.58C-1.96515 114.413 3.36799 111.459 13.0376 114.209C22.7072 116.958 26.6342 122.5 23.9295 125.463Z" fill="#DEBE16"/>
<line y1="-0.5" x2="14.4696" y2="-0.5" transform="matrix(0.767233 0.640329 0.905162 -0.428475 17.7075 117.809)" stroke="#DEBE16"/>
<path d="M24.8 135.924C22.5247 139.225 17.5999 134.168 7.61882 131.327C-2.36231 128.485 2.51817 124.837 12.4732 126.25C22.4282 127.664 27.0752 132.623 24.8 135.924Z" fill="#DEBE16"/>
<line y1="-0.5" x2="14.4743" y2="-0.5" transform="matrix(0.84723 0.530268 0.838347 -0.54717 17.5908 129.184)" stroke="#DEBE16"/>
<path d="M31.2711 161.054C29.3537 164.573 23.9265 160.055 13.7024 158.266C3.47832 156.477 7.95038 152.341 17.9991 152.713C28.0478 153.085 33.1884 157.534 31.2711 161.054Z" fill="#DEBE16"/>
<line y1="-0.5" x2="14.477" y2="-0.5" transform="matrix(0.89794 0.439297 0.776558 -0.631299 23.3962 155.099)" stroke="#DEBE16"/>
<path d="M35.3492 171.21C33.4318 174.73 28.0046 170.212 17.7805 168.423C7.55644 166.633 12.0285 162.498 22.0772 162.87C32.1259 163.242 37.2666 167.691 35.3492 171.21Z" fill="#DEBE16"/>
<line y1="-0.5" x2="14.477" y2="-0.5" transform="matrix(0.89794 0.439297 0.776558 -0.631299 27.4741 165.256)" stroke="#DEBE16"/>
<path d="M52.9323 196.61C52.1083 200.53 45.6087 197.752 35.299 198.958C24.9892 200.165 28.0833 194.925 37.8172 192.411C47.551 189.897 53.7563 192.691 52.9323 196.61Z" fill="#DEBE16"/>
<line y1="-0.5" x2="14.4792" y2="-0.5" transform="matrix(0.986515 0.164329 0.562293 -0.826653 43.6741 193.155)" stroke="#DEBE16"/>
<path d="M66.1847 207.782C65.3607 211.702 58.8612 208.924 48.5514 210.13C38.2417 211.336 41.3358 206.097 51.0696 203.583C60.8035 201.069 67.0088 203.863 66.1847 207.782Z" fill="#DEBE16"/>
<line y1="-0.5" x2="14.4792" y2="-0.5" transform="matrix(0.986515 0.164329 0.562293 -0.826653 56.9268 204.327)" stroke="#DEBE16"/>
<path d="M80.0571 216.711C80.0914 220.715 73.1466 219.382 63.3326 222.752C53.5185 226.122 55.4194 220.346 64.3907 215.821C73.3621 211.295 80.0229 212.706 80.0571 216.711Z" fill="#DEBE16"/>
<line y1="-0.5" x2="14.4757" y2="-0.5" transform="matrix(0.999233 -0.0491554 0.372295 -0.927077 70.2722 215.303)" stroke="#DEBE16"/>
<path d="M93.8597 222.181C94.6677 226.104 87.5954 226.129 78.617 231.32C69.6386 236.511 70.3867 230.478 78.3147 224.315C86.2428 218.153 93.0517 218.259 93.8597 222.181Z" fill="#DEBE16"/>
<line y1="-0.5" x2="14.4693" y2="-0.5" transform="matrix(0.971431 -0.24015 0.186003 -0.981051 83.9861 222.678)" stroke="#DEBE16"/>
<path d="M109.52 226.296C111.161 229.951 104.262 231.501 96.6233 238.504C88.9851 245.507 88.405 239.456 94.8069 231.73C101.209 224.005 107.879 222.64 109.52 226.296Z" fill="#DEBE16"/>
<line y1="-0.5" x2="14.4597" y2="-0.5" transform="matrix(0.896853 -0.444173 -0.0314748 -0.997724 99.9883 228.909)" stroke="#DEBE16"/>
<path d="M123.237 227.174C126.284 229.786 120.703 234.115 116.784 243.691C112.864 253.267 109.754 248.038 112.246 238.332C114.738 228.626 120.191 224.563 123.237 227.174Z" fill="#DEBE16"/>
<line y1="-0.5" x2="14.4398" y2="-0.5" transform="matrix(0.622619 -0.783345 -0.454602 -0.889131 115.729 233.582)" stroke="#DEBE16"/>
<path d="M139.548 227.174C142.595 229.786 137.014 234.115 133.095 243.691C129.175 253.267 126.065 248.038 128.557 238.332C131.049 228.626 136.502 224.563 139.548 227.174Z" fill="#DEBE16"/>
<line y1="-0.5" x2="14.4398" y2="-0.5" transform="matrix(0.622619 -0.783345 -0.454602 -0.889131 132.04 233.582)" stroke="#DEBE16"/>
<path d="M43.5846 184.048C41.8826 187.675 36.1931 183.49 25.8797 182.315C15.5662 181.141 19.7811 176.745 29.8341 176.516C39.8871 176.286 45.2865 180.42 43.5846 184.048Z" fill="#DEBE16"/>
<line y1="-0.5" x2="14.4781" y2="-0.5" transform="matrix(0.922713 0.384788 0.737145 -0.676606 35.3652 178.575)" stroke="#DEBE16"/>
<path d="M27.8578 149.126C25.5826 152.427 20.6578 147.37 10.6767 144.529C0.695555 141.687 5.57603 138.039 15.531 139.452C25.4861 140.866 30.1331 145.825 27.8578 149.126Z" fill="#DEBE16"/>
<line y1="-0.5" x2="14.4743" y2="-0.5" transform="matrix(0.84723 0.530268 0.838347 -0.54717 20.6487 142.386)" stroke="#DEBE16"/>
<path d="M99.8604 25.1416C96.8651 22.7722 102.039 18.1906 105.448 8.57304C108.857 -1.04456 112.003 3.88407 109.96 13.5402C107.916 23.1963 102.856 27.5111 99.8604 25.1416Z" fill="#DEBE16"/>
<line y1="-0.5" x2="14.2128" y2="-0.5" transform="matrix(-0.575924 0.818195 0.481872 0.874778 106.801 18.4053)" stroke="#DEBE16"/>
<path d="M146.799 220.942C146.799 220.942 154.106 219.987 161.071 220.942C168.649 221.981 171.776 224.899 179.931 234.145C188.087 243.392 193.694 243.794 193.694 243.794" stroke="#DEBE16" stroke-width="3"/>
<path d="M220.797 23.7209C353.324 48.604 323.25 243.607 186.136 219.739" stroke="#DEBE16" stroke-width="3"/>
<path d="M225.446 22.7352C225.439 26.278 220.798 28.9038 216.022 24.4146C211.246 19.9253 212.539 20.0619 217.259 18.2094C221.978 16.3569 225.453 19.1925 225.446 22.7352Z" fill="#DEBE16"/>
<path d="M231.68 30.4881C232.317 34.2757 225.315 34.2507 216.213 39.1921C207.11 44.1335 208.1 38.3221 216.203 32.4364C224.306 26.5507 231.042 26.7005 231.68 30.4881Z" fill="#DEBE16"/>
<line y1="-0.5" x2="14.42" y2="-0.5" transform="matrix(0.97489 -0.225476 0.231086 -0.971462 221.885 30.8982)" stroke="#DEBE16"/>
<path d="M242.743 34.8795C243.495 38.5713 236.6 38.8086 227.8 43.9965C218.999 49.1844 219.783 43.4464 227.569 37.3695C235.354 31.2926 241.991 31.1877 242.743 34.8795Z" fill="#DEBE16"/>
<line y1="-0.5" x2="14.2195" y2="-0.5" transform="matrix(0.965942 -0.261279 0.199116 -0.978434 233.113 35.6477)" stroke="#DEBE16"/>
<path d="M252.764 39.4515C253.936 43.3081 246.948 43.8783 238.568 49.7554C230.188 55.6325 230.352 49.5476 237.601 42.7806C244.85 36.0136 251.591 35.5949 252.764 39.4515Z" fill="#DEBE16"/>
<line y1="-0.5" x2="14.2961" y2="-0.5" transform="matrix(0.948715 -0.318535 0.0902922 -0.994286 243.051 40.708)" stroke="#DEBE16"/>
<path d="M264.048 46.4818C264.827 50.4361 257.816 50.3058 248.887 55.3167C239.958 60.3277 240.733 54.2898 248.627 48.2805C256.52 42.2712 263.269 42.5276 264.048 46.4818Z" fill="#DEBE16"/>
<line y1="-0.5" x2="14.3002" y2="-0.5" transform="matrix(0.9757 -0.222162 0.189855 -0.980351 254.257 46.7627)" stroke="#DEBE16"/>
<path d="M272.331 54.4443C272.719 58.4555 265.755 57.6437 256.377 61.762C247 65.8802 248.363 59.9467 256.808 54.7341C265.252 49.5215 271.944 50.4332 272.331 54.4443Z" fill="#DEBE16"/>
<line y1="-0.5" x2="14.3036" y2="-0.5" transform="matrix(0.992577 -0.126141 0.285064 -0.957262 262.56 53.7716)" stroke="#DEBE16"/>
<path d="M281.607 61.4217C281.764 65.4484 274.858 64.2415 265.26 67.8194C255.661 71.3972 257.363 65.5509 266.092 60.8274C274.822 56.104 281.45 57.395 281.607 61.4217Z" fill="#DEBE16"/>
<line y1="-0.5" x2="14.3052" y2="-0.5" transform="matrix(0.998072 -0.0694372 0.339499 -0.939508 271.891 60.1935)" stroke="#DEBE16"/>
<path d="M285.651 70.6073C285.881 74.6305 278.954 73.5492 269.423 77.3007C259.891 81.0522 261.485 75.176 270.127 70.2948C278.769 65.4137 285.42 66.5842 285.651 70.6073Z" fill="#DEBE16"/>
<line y1="-0.5" x2="14.3047" y2="-0.5" transform="matrix(0.996672 -0.0875464 0.322257 -0.945505 275.913 69.5559)" stroke="#DEBE16"/>
<path d="M291.044 79.3517C290.736 83.3698 284.014 81.3813 274.067 83.8382C264.12 86.2951 266.483 80.6819 275.699 76.9877C284.916 73.2934 291.351 75.3337 291.044 79.3517Z" fill="#DEBE16"/>
<line y1="-0.5" x2="14.3078" y2="-0.5" transform="matrix(0.999296 0.0451163 0.445493 -0.894538 281.532 77.0205)" stroke="#DEBE16"/>
<path d="M294.994 90.6954C294.896 94.7239 288.079 93.0855 278.274 96.0532C268.468 99.0208 270.536 93.2931 279.547 89.1275C288.559 84.9619 295.092 86.6669 294.994 90.6954Z" fill="#DEBE16"/>
<line y1="-0.5" x2="14.3068" y2="-0.5" transform="matrix(1.00037 -0.00658772 0.398309 -0.916337 285.375 88.8599)" stroke="#DEBE16"/>
<path d="M299.021 103.437C298.428 107.423 291.865 104.964 281.768 106.711C271.671 108.457 274.428 103.025 283.885 99.9929C293.341 96.9604 299.615 99.4511 299.021 103.437Z" fill="#DEBE16"/>
<line y1="-0.5" x2="14.3089" y2="-0.5" transform="matrix(0.993481 0.115735 0.508178 -0.860758 289.701 100.439)" stroke="#DEBE16"/>
<path d="M299.771 116.187C298.695 120.071 292.481 116.835 282.246 117.344C272.011 117.854 275.411 112.797 285.168 110.933C294.924 109.07 300.847 112.302 299.771 116.187Z" fill="#DEBE16"/>
<line y1="-0.5" x2="14.3095" y2="-0.5" transform="matrix(0.971916 0.235307 0.609545 -0.792765 290.886 112.081)" stroke="#DEBE16"/>
<path d="M301.81 126.344C300.734 130.228 294.52 126.991 284.285 127.501C274.05 128.01 277.45 122.953 287.207 121.09C296.963 119.226 302.886 122.459 301.81 126.344Z" fill="#DEBE16"/>
<line y1="-0.5" x2="14.3095" y2="-0.5" transform="matrix(0.971916 0.235307 0.609545 -0.792765 292.925 122.238)" stroke="#DEBE16"/>
<path d="M300.791 137.515C299.715 141.4 293.501 138.163 283.266 138.673C273.03 139.182 276.431 134.125 286.187 132.262C295.944 130.398 301.867 133.631 300.791 137.515Z" fill="#DEBE16"/>
<line y1="-0.5" x2="14.3095" y2="-0.5" transform="matrix(0.971916 0.235307 0.609545 -0.792765 291.905 133.409)" stroke="#DEBE16"/>
<path d="M298.183 148.592C296.799 152.378 290.864 148.658 280.621 148.352C270.377 148.046 274.172 143.276 284.047 142.194C293.921 141.112 299.567 144.805 298.183 148.592Z" fill="#DEBE16"/>
<line y1="-0.5" x2="14.3092" y2="-0.5" transform="matrix(0.949994 0.311824 0.671088 -0.741778 289.655 143.793)" stroke="#DEBE16"/>
<path d="M296.131 160.416C294.157 163.934 288.896 159.316 278.833 157.382C268.771 155.448 273.283 151.343 283.204 151.849C293.125 152.354 298.105 156.899 296.131 160.416Z" fill="#DEBE16"/>
<line y1="-0.5" x2="14.3068" y2="-0.5" transform="matrix(0.887865 0.459245 0.78148 -0.62528 288.483 154.32)" stroke="#DEBE16"/>
<path d="M289.973 170.728C287.975 174.231 282.746 169.577 272.697 167.572C262.649 165.568 267.189 161.495 277.107 162.07C287.024 162.644 291.972 167.225 289.973 170.728Z" fill="#DEBE16"/>
<line y1="-0.5" x2="14.3066" y2="-0.5" transform="matrix(0.884605 0.465472 0.78588 -0.619776 282.368 164.578)" stroke="#DEBE16"/>
<path d="M283.278 182.1C280.923 185.375 276.212 180.201 266.429 177.16C256.646 174.119 261.59 170.542 271.392 172.147C281.195 173.753 285.634 178.824 283.278 182.1Z" fill="#DEBE16"/>
<line y1="-0.5" x2="14.3038" y2="-0.5" transform="matrix(0.831016 0.555257 0.846619 -0.534402 276.362 175.191)" stroke="#DEBE16"/>
<path d="M274.228 193.059C271.252 195.788 267.697 189.766 258.742 184.803C249.786 179.84 255.357 177.342 264.626 180.903C273.894 184.464 277.204 190.33 274.228 193.059Z" fill="#DEBE16"/>
<line y1="-0.5" x2="14.2961" y2="-0.5" transform="matrix(0.700426 0.712657 0.937989 -0.351311 268.868 184.891)" stroke="#DEBE16"/>
<path d="M262.273 202.219C258.461 203.564 257.566 196.635 251.287 188.567C245.007 180.498 251.116 180.38 258.236 187.282C265.355 194.185 266.086 200.874 262.273 202.219Z" fill="#DEBE16"/>
<line y1="-0.5" x2="14.2775" y2="-0.5" transform="matrix(0.363647 0.930683 1.00072 0.0439528 260.565 192.61)" stroke="#DEBE16"/>
<path d="M247.568 210.666C243.638 211.617 243.457 204.634 238.037 195.969C232.616 187.304 238.705 187.808 245.081 195.398C251.457 202.987 251.499 209.716 247.568 210.666Z" fill="#DEBE16"/>
<line y1="-0.5" x2="14.2731" y2="-0.5" transform="matrix(0.266549 0.963076 0.990911 0.145401 246.853 200.935)" stroke="#DEBE16"/>
<path d="M236.079 214.647C232.044 214.919 233.056 208.007 229.192 198.55C225.327 189.094 231.241 190.621 236.231 199.179C241.22 207.738 240.115 214.375 236.079 214.647Z" fill="#DEBE16"/>
<line y1="-0.5" x2="14.2671" y2="-0.5" transform="matrix(0.0985369 0.994605 0.951608 0.310919 237.033 204.936)" stroke="#DEBE16"/>
<path d="M221.414 217.419C217.403 216.896 219.759 210.316 217.834 200.288C215.908 190.26 221.407 192.914 224.612 202.282C227.817 211.65 225.424 217.942 221.414 217.419Z" fill="#DEBE16"/>
<line y1="-0.5" x2="14.2629" y2="-0.5" transform="matrix(-0.0994921 0.994809 0.8717 0.491027 224.263 208.083)" stroke="#DEBE16"/>
<path d="M209.931 218.653C205.893 218.422 207.761 211.689 205.107 201.827C202.453 191.966 208.131 194.214 212.013 203.324C215.895 212.434 213.969 218.883 209.931 218.653Z" fill="#DEBE16"/>
<line y1="-0.5" x2="14.2641" y2="-0.5" transform="matrix(-0.026436 0.999305 0.905331 0.426425 212.09 209.135)" stroke="#DEBE16"/>
<path d="M193.46 216.75C189.462 216.134 191.972 209.611 190.283 199.541C188.593 189.47 194.028 192.252 197.012 201.692C199.996 211.132 197.457 217.367 193.46 216.75Z" fill="#DEBE16"/>
<line y1="-0.5" x2="14.2626" y2="-0.5" transform="matrix(-0.122813 0.992238 0.859933 0.511194 196.528 207.484)" stroke="#DEBE16"/>
<path d="M246.816 26.7258C250.289 24.5511 245.324 19.5837 242.839 9.67422C240.353 -0.235241 236.414 4.50273 237.44 14.356C238.466 24.2092 243.343 28.9004 246.816 26.7258Z" fill="#DEBE16"/>
<line y1="-0.5" x2="14.2829" y2="-0.5" transform="matrix(0.513477 0.858667 -0.588915 0.806948 240.225 19.4686)" stroke="#DEBE16"/>
<path d="M257.47 32.3395C261.051 30.5207 256.658 24.999 255.126 14.7703C253.595 4.54152 249.33 8.88873 249.444 18.9062C249.558 28.9237 253.89 34.1583 257.47 32.3395Z" fill="#DEBE16"/>
<line y1="-0.5" x2="14.433" y2="-0.5" transform="matrix(0.418899 0.90839 -0.652938 0.756483 251.699 24.3431)" stroke="#DEBE16"/>
<path d="M267.268 37.3807C271.064 36.0635 267.464 29.9983 267.342 19.6571C267.22 9.31585 262.401 13.0453 261.148 22.9854C259.895 32.9254 263.472 38.6978 267.268 37.3807Z" fill="#DEBE16"/>
<line y1="-0.5" x2="14.4313" y2="-0.5" transform="matrix(0.291151 0.956788 -0.750036 0.661051 262.641 28.6765)" stroke="#DEBE16"/>
<path d="M277.728 45.3432C281.602 44.2762 278.409 37.9894 278.966 27.6623C279.523 17.3353 274.47 20.7428 272.567 30.5798C270.663 40.4168 273.854 46.4101 277.728 45.3432Z" fill="#DEBE16"/>
<line y1="-0.5" x2="14.4311" y2="-0.5" transform="matrix(0.227701 0.973728 -0.791835 0.610746 273.682 36.3562)" stroke="#DEBE16"/>
<path d="M286.948 55.3274C290.945 54.9056 288.825 48.1833 291.069 38.0859C293.313 27.9884 287.769 30.5273 284.277 39.9221C280.786 49.317 282.951 55.7493 286.948 55.3274Z" fill="#DEBE16"/>
<line y1="-0.5" x2="14.4324" y2="-0.5" transform="matrix(0.0649055 0.997619 -0.881397 0.473623 284.43 45.8027)" stroke="#DEBE16"/>
<path d="M293.188 63.5971C297.199 63.8543 296.251 56.8719 300.175 47.2975C304.099 37.7232 298.204 39.292 293.169 47.9637C288.134 56.6355 289.177 63.3398 293.188 63.5971Z" fill="#DEBE16"/>
<line y1="-0.5" x2="14.4363" y2="-0.5" transform="matrix(-0.105246 0.993924 -0.949138 0.318416 292.323 53.7855)" stroke="#DEBE16"/>
<path d="M298.81 73.5992C302.794 74.1308 302.33 67.0999 306.906 57.8172C311.482 48.5344 305.493 49.6955 299.871 58.0016C294.249 66.3078 294.826 73.0677 298.81 73.5992Z" fill="#DEBE16"/>
<line y1="-0.5" x2="14.4386" y2="-0.5" transform="matrix(-0.173598 0.984204 -0.968917 0.252624 298.624 63.7512)" stroke="#DEBE16"/>
<path d="M303.59 85.2674C307.488 86.2449 307.826 79.2069 313.428 70.5001C319.029 61.7932 312.946 62.2712 306.417 69.8898C299.887 77.5083 299.692 84.2898 303.59 85.2674Z" fill="#DEBE16"/>
<line y1="-0.5" x2="14.4429" y2="-0.5" transform="matrix(-0.284251 0.958002 -0.991479 0.141713 304.524 75.4622)" stroke="#DEBE16"/>
<path d="M307.528 97.9874C311.275 99.4386 312.485 92.4966 319.127 84.5484C325.768 76.6001 319.673 76.3235 312.246 83.0773C304.819 89.8311 303.782 96.5363 307.528 97.9874Z" fill="#DEBE16"/>
<line y1="-0.5" x2="14.4484" y2="-0.5" transform="matrix(-0.401054 0.915182 -1.00157 0.0182305 309.676 88.3728)" stroke="#DEBE16"/>
<path d="M308.874 114.179C312.22 116.398 314.899 109.877 323.1 103.536C331.3 97.1951 325.407 95.6202 316.697 100.626C307.987 105.633 305.528 111.959 308.874 114.179Z" fill="#DEBE16"/>
<line y1="-0.5" x2="14.4588" y2="-0.5" transform="matrix(-0.588636 0.807381 -0.982302 -0.196627 313.044 105.248)" stroke="#DEBE16"/>
<path d="M311.466 124.447C314.171 127.409 318.36 121.732 327.86 117.565C337.361 113.397 332.028 110.444 322.358 113.193C312.689 115.942 308.762 121.485 311.466 124.447Z" fill="#DEBE16"/>
<line y1="-0.5" x2="14.4696" y2="-0.5" transform="matrix(-0.767233 0.640329 -0.905162 -0.428475 317.688 116.793)" stroke="#DEBE16"/>
<path d="M310.596 134.907C312.872 138.208 317.797 133.151 327.778 130.309C337.759 127.468 332.878 123.819 322.923 125.233C312.968 126.647 308.321 131.606 310.596 134.907Z" fill="#DEBE16"/>
<line y1="-0.5" x2="14.4743" y2="-0.5" transform="matrix(-0.84723 0.530269 -0.838347 -0.54717 317.805 128.167)" stroke="#DEBE16"/>
<path d="M304.125 160.038C306.042 163.557 311.469 159.04 321.693 157.25C331.917 155.461 327.445 151.325 317.397 151.697C307.348 152.069 302.207 156.519 304.125 160.038Z" fill="#DEBE16"/>
<line y1="-0.5" x2="14.477" y2="-0.5" transform="matrix(-0.89794 0.439297 -0.776557 -0.631299 312 154.083)" stroke="#DEBE16"/>
<path d="M300.047 170.195C301.964 173.714 307.391 169.196 317.615 167.407C327.839 165.618 323.367 161.482 313.319 161.854C303.27 162.226 298.129 166.675 300.047 170.195Z" fill="#DEBE16"/>
<line y1="-0.5" x2="14.477" y2="-0.5" transform="matrix(-0.89794 0.439297 -0.776557 -0.631299 307.922 164.24)" stroke="#DEBE16"/>
<path d="M282.464 195.595C283.288 199.514 289.788 196.736 300.097 197.943C310.407 199.149 307.313 193.909 297.579 191.395C287.845 188.881 281.64 191.675 282.464 195.595Z" fill="#DEBE16"/>
<line y1="-0.5" x2="14.4792" y2="-0.5" transform="matrix(-0.986515 0.164329 -0.562293 -0.826653 291.722 192.14)" stroke="#DEBE16"/>
<path d="M269.211 206.766C270.035 210.686 276.535 207.908 286.844 209.114C297.154 210.321 294.06 205.081 284.326 202.567C274.592 200.053 268.387 202.847 269.211 206.766Z" fill="#DEBE16"/>
<line y1="-0.5" x2="14.4792" y2="-0.5" transform="matrix(-0.986515 0.164329 -0.562293 -0.826653 278.469 203.312)" stroke="#DEBE16"/>
<path d="M255.339 215.695C255.305 219.699 262.249 218.366 272.063 221.736C281.877 225.106 279.977 219.33 271.005 214.805C262.034 210.28 255.373 211.69 255.339 215.695Z" fill="#DEBE16"/>
<line y1="-0.5" x2="14.4757" y2="-0.5" transform="matrix(-0.999233 -0.0491554 -0.372295 -0.927077 265.124 214.287)" stroke="#DEBE16"/>
<path d="M241.536 221.168C240.728 225.09 247.801 225.116 256.779 230.307C265.757 235.497 265.009 229.464 257.081 223.302C249.153 217.139 242.344 217.245 241.536 221.168Z" fill="#DEBE16"/>
<line y1="-0.5" x2="14.4693" y2="-0.5" transform="matrix(-0.97143 -0.24015 -0.186003 -0.981051 251.41 221.665)" stroke="#DEBE16"/>
<path d="M225.876 225.28C224.235 228.935 231.134 230.485 238.773 237.488C246.411 244.492 246.991 238.44 240.589 230.714C234.187 222.989 227.517 221.624 225.876 225.28Z" fill="#DEBE16"/>
<line y1="-0.5" x2="14.4597" y2="-0.5" transform="matrix(-0.896853 -0.444173 0.0314748 -0.997724 235.408 227.894)" stroke="#DEBE16"/>
<path d="M212.158 226.159C209.111 228.771 214.692 233.099 218.612 242.675C222.531 252.252 225.642 247.022 223.15 237.316C220.658 227.611 215.205 223.547 212.158 226.159Z" fill="#DEBE16"/>
<line y1="-0.5" x2="14.4398" y2="-0.5" transform="matrix(-0.622619 -0.783345 0.454602 -0.889131 219.667 232.567)" stroke="#DEBE16"/>
<path d="M195.847 226.159C192.8 228.771 198.381 233.099 202.3 242.675C206.22 252.252 209.33 247.022 206.838 237.316C204.346 227.611 198.893 223.547 195.847 226.159Z" fill="#DEBE16"/>
<line y1="-0.5" x2="14.4398" y2="-0.5" transform="matrix(-0.622619 -0.783345 0.454602 -0.889131 203.355 232.567)" stroke="#DEBE16"/>
<path d="M291.811 183.032C293.513 186.66 299.202 182.474 309.516 181.3C319.829 180.125 315.614 175.729 305.561 175.5C295.508 175.27 290.109 179.404 291.811 183.032Z" fill="#DEBE16"/>
<line y1="-0.5" x2="14.4781" y2="-0.5" transform="matrix(-0.922713 0.384788 -0.737145 -0.676606 300.031 177.559)" stroke="#DEBE16"/>
<path d="M307.539 148.11C309.814 151.411 314.739 146.354 324.72 143.512C334.701 140.671 329.82 137.022 319.865 138.436C309.91 139.85 305.263 144.809 307.539 148.11Z" fill="#DEBE16"/>
<line y1="-0.5" x2="14.4743" y2="-0.5" transform="matrix(-0.84723 0.530269 -0.838347 -0.54717 314.748 141.369)" stroke="#DEBE16"/>
<path d="M235.535 24.1264C238.531 21.7569 233.357 17.1754 229.948 7.55778C226.539 -2.05982 223.393 2.86881 225.436 12.5249C227.479 22.1811 232.54 26.4958 235.535 24.1264Z" fill="#DEBE16"/>
<line y1="-0.5" x2="14.2128" y2="-0.5" transform="matrix(0.575924 0.818195 -0.481872 0.874778 228.594 17.3903)" stroke="#DEBE16"/>
<path d="M188.596 219.927C188.596 219.927 181.29 218.971 174.324 219.927C166.746 220.966 163.62 223.883 155.465 233.13C147.309 242.377 141.702 242.779 141.702 242.779" stroke="#DEBE16" stroke-width="3"/>
<defs>
<filter id="filter0_d_22_961" x="71.342" y="75.2859" width="182.989" height="28.2861" filterUnits="userSpaceOnUse" color-interpolation-filters="sRGB">
<feFlood flood-opacity="0" result="BackgroundImageFix"/>
<feColorMatrix in="SourceAlpha" type="matrix" values="0 0 0 0 0 0 0 0 0 0 0 0 0 0 0 0 0 0 127 0" result="hardAlpha"/>
<feOffset dy="4"/>
<feGaussianBlur stdDeviation="2"/>
<feComposite in2="hardAlpha" operator="out"/>
<feColorMatrix type="matrix" values="0 0 0 0 0 0 0 0 0 0 0 0 0 0 0 0 0 0 0.25 0"/>
<feBlend mode="normal" in2="BackgroundImageFix" result="effect1_dropShadow_22_961"/>
<feBlend mode="normal" in="SourceGraphic" in2="effect1_dropShadow_22_961" result="shape"/>
</filter>
<filter id="filter1_d_22_961" x="94.2866" y="129.989" width="141.789" height="41.04" filterUnits="userSpaceOnUse" color-interpolation-filters="sRGB">
<feFlood flood-opacity="0" result="BackgroundImageFix"/>
<feColorMatrix in="SourceAlpha" type="matrix" values="0 0 0 0 0 0 0 0 0 0 0 0 0 0 0 0 0 0 127 0" result="hardAlpha"/>
<feOffset dy="4"/>
<feGaussianBlur stdDeviation="2"/>
<feComposite in2="hardAlpha" operator="out"/>
<feColorMatrix type="matrix" values="0 0 0 0 0 0 0 0 0 0 0 0 0 0 0 0 0 0 0.25 0"/>
<feBlend mode="normal" in2="BackgroundImageFix" result="effect1_dropShadow_22_961"/>
<feBlend mode="normal" in="SourceGraphic" in2="effect1_dropShadow_22_961" result="shape"/>
</filter>
</defs>
</svg>
