<svg width="233" height="37" viewBox="0 0 233 37" fill="none" xmlns="http://www.w3.org/2000/svg">
<path d="M23.7927 5.8282L26.7255 11.0902C27.1254 11.8227 28.1919 12.5253 29.0917 12.6598L34.4074 13.4521C37.8068 13.9604 38.6067 16.1728 36.1571 18.3554L32.0245 22.0627C31.3247 22.6906 30.9414 23.9014 31.158 24.7685L32.3411 29.3578C33.2743 32.9904 31.1247 34.3956 27.542 32.497L22.5596 29.8511C21.6598 29.3727 20.1767 29.3727 19.2602 29.8511L14.2778 32.497C10.7118 34.3956 8.54548 32.9754 9.47865 29.3578L10.6618 24.7685C10.8784 23.9014 10.4951 22.6906 9.79525 22.0627L5.66268 18.3554C3.22979 16.1728 4.01298 13.9604 7.41236 13.4521L12.7281 12.6598C13.6112 12.5253 14.6777 11.8227 15.0776 11.0902L18.0104 5.8282C19.6101 2.97296 22.2097 2.97296 23.7927 5.8282Z" fill="#FAFF08" stroke="#141B34" stroke-width="1.5" stroke-linecap="round" stroke-linejoin="round"/>
<path d="M71.789 5.8282L74.7218 11.0902C75.1218 11.8227 76.1882 12.5253 77.0881 12.6598L82.4038 13.4521C85.8031 13.9604 86.603 16.1728 84.1534 18.3554L80.0209 22.0627C79.321 22.6906 78.9377 23.9014 79.1544 24.7685L80.3375 29.3578C81.2706 32.9904 79.121 34.3956 75.5384 32.497L70.5559 29.8511C69.6561 29.3727 68.173 29.3727 67.2565 29.8511L62.2741 32.497C58.7081 34.3956 56.5418 32.9754 57.475 29.3578L58.6581 24.7685C58.8747 23.9014 58.4915 22.6906 57.7916 22.0627L53.659 18.3554C51.2261 16.1728 52.0093 13.9604 55.4087 13.4521L60.7244 12.6598C61.6076 12.5253 62.674 11.8227 63.074 11.0902L66.0068 5.8282C67.6065 2.97296 70.206 2.97296 71.789 5.8282Z" fill="#FAFF08" stroke="#141B34" stroke-width="1.5" stroke-linecap="round" stroke-linejoin="round"/>
<path d="M119.878 5.8282L122.81 11.0902C123.21 11.8227 124.277 12.5253 125.177 12.6598L130.492 13.4521C133.892 13.9604 134.692 16.1728 132.242 18.3554L128.109 22.0627C127.41 22.6906 127.026 23.9014 127.243 24.7685L128.426 29.3578C129.359 32.9904 127.21 34.3956 123.627 32.497L118.645 29.8511C117.745 29.3727 116.262 29.3727 115.345 29.8511L110.363 32.497C106.797 34.3956 104.63 32.9754 105.564 29.3578L106.747 24.7685C106.963 23.9014 106.58 22.6906 105.88 22.0627L101.748 18.3554C99.3147 16.1728 100.098 13.9604 103.497 13.4521L108.813 12.6598C109.696 12.5253 110.763 11.8227 111.163 11.0902L114.095 5.8282C115.695 2.97296 118.295 2.97296 119.878 5.8282Z" fill="#FAFF08" stroke="#141B34" stroke-width="1.5" stroke-linecap="round" stroke-linejoin="round"/>
<path d="M167.782 5.8282L170.715 11.0902C171.115 11.8227 172.181 12.5253 173.081 12.6598L178.397 13.4521C181.796 13.9604 182.596 16.1728 180.147 18.3554L176.014 22.0627C175.314 22.6906 174.931 23.9014 175.148 24.7685L176.331 29.3578C177.264 32.9904 175.114 34.3956 171.532 32.497L166.549 29.8511C165.649 29.3727 164.166 29.3727 163.25 29.8511L158.267 32.497C154.701 34.3956 152.535 32.9754 153.468 29.3578L154.651 24.7685C154.868 23.9014 154.485 22.6906 153.785 22.0627L149.652 18.3554C147.219 16.1728 148.002 13.9604 151.402 13.4521L156.718 12.6598C157.601 12.5253 158.667 11.8227 159.067 11.0902L162 5.8282C163.6 2.97296 166.199 2.97296 167.782 5.8282Z" fill="#FAFF08" stroke="#141B34" stroke-width="1.5" stroke-linecap="round" stroke-linejoin="round"/>
<path d="M215.779 5.8282L218.712 11.0902C219.112 11.8227 220.178 12.5253 221.078 12.6598L226.394 13.4521C229.793 13.9604 230.593 16.1728 228.143 18.3554L224.011 22.0627C223.311 22.6906 222.927 23.9014 223.144 24.7685L224.327 29.3578C225.26 32.9904 223.111 34.3956 219.528 32.497L214.546 29.8511C213.646 29.3727 212.163 29.3727 211.246 29.8511L206.264 32.497C202.698 34.3956 200.532 32.9754 201.465 29.3578L202.648 24.7685C202.864 23.9014 202.481 22.6906 201.781 22.0627L197.649 18.3554C195.216 16.1728 195.999 13.9604 199.398 13.4521L204.714 12.6598C205.597 12.5253 206.664 11.8227 207.064 11.0902L209.997 5.8282C211.596 2.97296 214.196 2.97296 215.779 5.8282Z" fill="white" stroke="#141B34" stroke-width="1.5" stroke-linecap="round" stroke-linejoin="round"/>
</svg>
